<mxfile host="65bd71144e" pages="7">
    <diagram name="PÃ¡gina-1" id="YykIw0o80EHM5fx9cYuo">
        <mxGraphModel dx="1386" dy="787" grid="1" gridSize="10" guides="1" tooltips="1" connect="1" arrows="1" fold="1" page="1" pageScale="1" pageWidth="827" pageHeight="1169" math="0" shadow="0">
            <root>
                <mxCell id="0"/>
                <mxCell id="1" parent="0"/>
                <mxCell id="GHJkYI0ExUT0KtiPZ0Wl-38" style="edgeStyle=orthogonalEdgeStyle;rounded=0;orthogonalLoop=1;jettySize=auto;html=1;entryX=0.5;entryY=0;entryDx=0;entryDy=0;startArrow=diamondThin;startFill=0;endArrow=none;endFill=0;startSize=9;" parent="1" source="GHJkYI0ExUT0KtiPZ0Wl-23" target="GHJkYI0ExUT0KtiPZ0Wl-27" edge="1">
                    <mxGeometry relative="1" as="geometry"/>
                </mxCell>
                <mxCell id="GHJkYI0ExUT0KtiPZ0Wl-81" value="Administra" style="edgeLabel;html=1;align=center;verticalAlign=middle;resizable=0;points=[];" parent="GHJkYI0ExUT0KtiPZ0Wl-38" vertex="1" connectable="0">
                    <mxGeometry x="-0.0354" relative="1" as="geometry">
                        <mxPoint as="offset"/>
                    </mxGeometry>
                </mxCell>
                <mxCell id="GHJkYI0ExUT0KtiPZ0Wl-23" value="Adminidtrador" style="swimlane;fontStyle=0;childLayout=stackLayout;horizontal=1;startSize=26;fillColor=none;horizontalStack=0;resizeParent=1;resizeParentMax=0;resizeLast=0;collapsible=1;marginBottom=0;whiteSpace=wrap;html=1;" parent="1" vertex="1">
                    <mxGeometry x="60" y="138" width="140" height="104" as="geometry"/>
                </mxCell>
                <mxCell id="GHJkYI0ExUT0KtiPZ0Wl-24" value="+ field: type" style="text;strokeColor=none;fillColor=none;align=left;verticalAlign=top;spacingLeft=4;spacingRight=4;overflow=hidden;rotatable=0;points=[[0,0.5],[1,0.5]];portConstraint=eastwest;whiteSpace=wrap;html=1;" parent="GHJkYI0ExUT0KtiPZ0Wl-23" vertex="1">
                    <mxGeometry y="26" width="140" height="26" as="geometry"/>
                </mxCell>
                <mxCell id="GHJkYI0ExUT0KtiPZ0Wl-25" value="+ field: type" style="text;strokeColor=none;fillColor=none;align=left;verticalAlign=top;spacingLeft=4;spacingRight=4;overflow=hidden;rotatable=0;points=[[0,0.5],[1,0.5]];portConstraint=eastwest;whiteSpace=wrap;html=1;" parent="GHJkYI0ExUT0KtiPZ0Wl-23" vertex="1">
                    <mxGeometry y="52" width="140" height="26" as="geometry"/>
                </mxCell>
                <mxCell id="GHJkYI0ExUT0KtiPZ0Wl-26" value="+ field: type" style="text;strokeColor=none;fillColor=none;align=left;verticalAlign=top;spacingLeft=4;spacingRight=4;overflow=hidden;rotatable=0;points=[[0,0.5],[1,0.5]];portConstraint=eastwest;whiteSpace=wrap;html=1;" parent="GHJkYI0ExUT0KtiPZ0Wl-23" vertex="1">
                    <mxGeometry y="78" width="140" height="26" as="geometry"/>
                </mxCell>
                <mxCell id="GHJkYI0ExUT0KtiPZ0Wl-40" style="edgeStyle=orthogonalEdgeStyle;rounded=0;orthogonalLoop=1;jettySize=auto;html=1;endArrow=none;endFill=0;" parent="1" source="GHJkYI0ExUT0KtiPZ0Wl-27" target="GHJkYI0ExUT0KtiPZ0Wl-31" edge="1">
                    <mxGeometry relative="1" as="geometry"/>
                </mxCell>
                <mxCell id="GHJkYI0ExUT0KtiPZ0Wl-61" style="edgeStyle=orthogonalEdgeStyle;rounded=0;orthogonalLoop=1;jettySize=auto;html=1;endArrow=none;endFill=0;startArrow=block;startFill=0;" parent="1" source="GHJkYI0ExUT0KtiPZ0Wl-27" target="GHJkYI0ExUT0KtiPZ0Wl-53" edge="1">
                    <mxGeometry relative="1" as="geometry">
                        <Array as="points">
                            <mxPoint x="130" y="430"/>
                            <mxPoint x="90" y="430"/>
                        </Array>
                    </mxGeometry>
                </mxCell>
                <mxCell id="GHJkYI0ExUT0KtiPZ0Wl-62" style="edgeStyle=orthogonalEdgeStyle;rounded=0;orthogonalLoop=1;jettySize=auto;html=1;endArrow=none;endFill=0;startArrow=block;startFill=0;" parent="1" source="GHJkYI0ExUT0KtiPZ0Wl-27" target="GHJkYI0ExUT0KtiPZ0Wl-50" edge="1">
                    <mxGeometry relative="1" as="geometry">
                        <Array as="points">
                            <mxPoint x="130" y="430"/>
                            <mxPoint x="320" y="430"/>
                        </Array>
                    </mxGeometry>
                </mxCell>
                <mxCell id="GHJkYI0ExUT0KtiPZ0Wl-27" value="Usuario" style="swimlane;fontStyle=0;childLayout=stackLayout;horizontal=1;startSize=26;fillColor=none;horizontalStack=0;resizeParent=1;resizeParentMax=0;resizeLast=0;collapsible=1;marginBottom=0;whiteSpace=wrap;html=1;" parent="1" vertex="1">
                    <mxGeometry x="60" y="315" width="140" height="78" as="geometry"/>
                </mxCell>
                <mxCell id="GHJkYI0ExUT0KtiPZ0Wl-28" value="+ nombre: string" style="text;strokeColor=none;fillColor=none;align=left;verticalAlign=top;spacingLeft=4;spacingRight=4;overflow=hidden;rotatable=0;points=[[0,0.5],[1,0.5]];portConstraint=eastwest;whiteSpace=wrap;html=1;" parent="GHJkYI0ExUT0KtiPZ0Wl-27" vertex="1">
                    <mxGeometry y="26" width="140" height="26" as="geometry"/>
                </mxCell>
                <mxCell id="GHJkYI0ExUT0KtiPZ0Wl-29" value="+ codigo: string" style="text;strokeColor=none;fillColor=none;align=left;verticalAlign=top;spacingLeft=4;spacingRight=4;overflow=hidden;rotatable=0;points=[[0,0.5],[1,0.5]];portConstraint=eastwest;whiteSpace=wrap;html=1;" parent="GHJkYI0ExUT0KtiPZ0Wl-27" vertex="1">
                    <mxGeometry y="52" width="140" height="26" as="geometry"/>
                </mxCell>
                <mxCell id="GHJkYI0ExUT0KtiPZ0Wl-31" value="Solicitud" style="swimlane;fontStyle=0;childLayout=stackLayout;horizontal=1;startSize=26;fillColor=none;horizontalStack=0;resizeParent=1;resizeParentMax=0;resizeLast=0;collapsible=1;marginBottom=0;whiteSpace=wrap;html=1;" parent="1" vertex="1">
                    <mxGeometry x="250" y="328" width="140" height="52" as="geometry"/>
                </mxCell>
                <mxCell id="GHJkYI0ExUT0KtiPZ0Wl-44" style="edgeStyle=orthogonalEdgeStyle;rounded=0;orthogonalLoop=1;jettySize=auto;html=1;endArrow=block;endFill=0;" parent="1" source="GHJkYI0ExUT0KtiPZ0Wl-34" target="GHJkYI0ExUT0KtiPZ0Wl-31" edge="1">
                    <mxGeometry relative="1" as="geometry">
                        <Array as="points">
                            <mxPoint x="420" y="316"/>
                            <mxPoint x="420" y="354"/>
                        </Array>
                    </mxGeometry>
                </mxCell>
                <mxCell id="GHJkYI0ExUT0KtiPZ0Wl-48" style="edgeStyle=orthogonalEdgeStyle;rounded=0;orthogonalLoop=1;jettySize=auto;html=1;endArrow=none;endFill=0;" parent="1" source="GHJkYI0ExUT0KtiPZ0Wl-34" target="GHJkYI0ExUT0KtiPZ0Wl-45" edge="1">
                    <mxGeometry relative="1" as="geometry"/>
                </mxCell>
                <mxCell id="GHJkYI0ExUT0KtiPZ0Wl-34" value="Prestamo" style="swimlane;fontStyle=0;childLayout=stackLayout;horizontal=1;startSize=26;fillColor=none;horizontalStack=0;resizeParent=1;resizeParentMax=0;resizeLast=0;collapsible=1;marginBottom=0;whiteSpace=wrap;html=1;" parent="1" vertex="1">
                    <mxGeometry x="450" y="290" width="140" height="52" as="geometry"/>
                </mxCell>
                <mxCell id="GHJkYI0ExUT0KtiPZ0Wl-41" style="edgeStyle=orthogonalEdgeStyle;rounded=0;orthogonalLoop=1;jettySize=auto;html=1;endArrow=block;endFill=0;" parent="1" source="GHJkYI0ExUT0KtiPZ0Wl-35" target="GHJkYI0ExUT0KtiPZ0Wl-31" edge="1">
                    <mxGeometry relative="1" as="geometry"/>
                </mxCell>
                <mxCell id="GHJkYI0ExUT0KtiPZ0Wl-49" style="edgeStyle=orthogonalEdgeStyle;rounded=0;orthogonalLoop=1;jettySize=auto;html=1;entryX=0;entryY=0.5;entryDx=0;entryDy=0;endArrow=none;endFill=0;" parent="1" source="GHJkYI0ExUT0KtiPZ0Wl-35" target="GHJkYI0ExUT0KtiPZ0Wl-45" edge="1">
                    <mxGeometry relative="1" as="geometry"/>
                </mxCell>
                <mxCell id="GHJkYI0ExUT0KtiPZ0Wl-35" value="Reserva" style="swimlane;fontStyle=0;childLayout=stackLayout;horizontal=1;startSize=26;fillColor=none;horizontalStack=0;resizeParent=1;resizeParentMax=0;resizeLast=0;collapsible=1;marginBottom=0;whiteSpace=wrap;html=1;" parent="1" vertex="1">
                    <mxGeometry x="450" y="380" width="140" height="52" as="geometry"/>
                </mxCell>
                <mxCell id="GHJkYI0ExUT0KtiPZ0Wl-47" style="edgeStyle=orthogonalEdgeStyle;rounded=0;orthogonalLoop=1;jettySize=auto;html=1;endArrow=diamondThin;endFill=1;startSize=6;endSize=10;" parent="1" source="GHJkYI0ExUT0KtiPZ0Wl-36" target="GHJkYI0ExUT0KtiPZ0Wl-45" edge="1">
                    <mxGeometry relative="1" as="geometry"/>
                </mxCell>
                <mxCell id="GHJkYI0ExUT0KtiPZ0Wl-82" value="Tiene" style="edgeLabel;html=1;align=center;verticalAlign=middle;resizable=0;points=[];" parent="GHJkYI0ExUT0KtiPZ0Wl-47" vertex="1" connectable="0">
                    <mxGeometry x="-0.2855" y="2" relative="1" as="geometry">
                        <mxPoint as="offset"/>
                    </mxGeometry>
                </mxCell>
                <mxCell id="GHJkYI0ExUT0KtiPZ0Wl-36" value="Autores" style="swimlane;fontStyle=0;childLayout=stackLayout;horizontal=1;startSize=26;fillColor=none;horizontalStack=0;resizeParent=1;resizeParentMax=0;resizeLast=0;collapsible=1;marginBottom=0;whiteSpace=wrap;html=1;" parent="1" vertex="1">
                    <mxGeometry x="650" y="200" width="140" height="52" as="geometry"/>
                </mxCell>
                <mxCell id="GHJkYI0ExUT0KtiPZ0Wl-37" value="+ nombre: string" style="text;strokeColor=none;fillColor=none;align=left;verticalAlign=top;spacingLeft=4;spacingRight=4;overflow=hidden;rotatable=0;points=[[0,0.5],[1,0.5]];portConstraint=eastwest;whiteSpace=wrap;html=1;" parent="GHJkYI0ExUT0KtiPZ0Wl-36" vertex="1">
                    <mxGeometry y="26" width="140" height="26" as="geometry"/>
                </mxCell>
                <mxCell id="GHJkYI0ExUT0KtiPZ0Wl-45" value="Lirbo" style="swimlane;fontStyle=0;childLayout=stackLayout;horizontal=1;startSize=26;fillColor=none;horizontalStack=0;resizeParent=1;resizeParentMax=0;resizeLast=0;collapsible=1;marginBottom=0;whiteSpace=wrap;html=1;" parent="1" vertex="1">
                    <mxGeometry x="650" y="338" width="140" height="52" as="geometry"/>
                </mxCell>
                <mxCell id="GHJkYI0ExUT0KtiPZ0Wl-46" value="+ categoria: string" style="text;strokeColor=none;fillColor=none;align=left;verticalAlign=top;spacingLeft=4;spacingRight=4;overflow=hidden;rotatable=0;points=[[0,0.5],[1,0.5]];portConstraint=eastwest;whiteSpace=wrap;html=1;" parent="GHJkYI0ExUT0KtiPZ0Wl-45" vertex="1">
                    <mxGeometry y="26" width="140" height="26" as="geometry"/>
                </mxCell>
                <mxCell id="GHJkYI0ExUT0KtiPZ0Wl-63" style="edgeStyle=orthogonalEdgeStyle;rounded=0;orthogonalLoop=1;jettySize=auto;html=1;endArrow=none;endFill=0;startArrow=block;startFill=0;" parent="1" source="GHJkYI0ExUT0KtiPZ0Wl-50" target="GHJkYI0ExUT0KtiPZ0Wl-60" edge="1">
                    <mxGeometry relative="1" as="geometry">
                        <Array as="points">
                            <mxPoint x="320" y="560"/>
                            <mxPoint x="130" y="560"/>
                        </Array>
                    </mxGeometry>
                </mxCell>
                <mxCell id="GHJkYI0ExUT0KtiPZ0Wl-50" value="Personal" style="swimlane;fontStyle=0;childLayout=stackLayout;horizontal=1;startSize=26;fillColor=none;horizontalStack=0;resizeParent=1;resizeParentMax=0;resizeLast=0;collapsible=1;marginBottom=0;whiteSpace=wrap;html=1;" parent="1" vertex="1">
                    <mxGeometry x="250" y="470" width="140" height="52" as="geometry"/>
                </mxCell>
                <mxCell id="GHJkYI0ExUT0KtiPZ0Wl-53" value="Estudiante" style="swimlane;fontStyle=0;childLayout=stackLayout;horizontal=1;startSize=26;fillColor=none;horizontalStack=0;resizeParent=1;resizeParentMax=0;resizeLast=0;collapsible=1;marginBottom=0;whiteSpace=wrap;html=1;" parent="1" vertex="1">
                    <mxGeometry x="20" y="470" width="140" height="52" as="geometry"/>
                </mxCell>
                <mxCell id="GHJkYI0ExUT0KtiPZ0Wl-64" style="edgeStyle=orthogonalEdgeStyle;rounded=0;orthogonalLoop=1;jettySize=auto;html=1;endArrow=block;endFill=0;" parent="1" source="GHJkYI0ExUT0KtiPZ0Wl-54" target="GHJkYI0ExUT0KtiPZ0Wl-50" edge="1">
                    <mxGeometry relative="1" as="geometry">
                        <Array as="points">
                            <mxPoint x="520" y="560"/>
                            <mxPoint x="320" y="560"/>
                        </Array>
                    </mxGeometry>
                </mxCell>
                <mxCell id="GHJkYI0ExUT0KtiPZ0Wl-66" style="edgeStyle=orthogonalEdgeStyle;rounded=0;orthogonalLoop=1;jettySize=auto;html=1;startArrow=block;startFill=0;endArrow=none;endFill=0;" parent="1" source="GHJkYI0ExUT0KtiPZ0Wl-54" target="GHJkYI0ExUT0KtiPZ0Wl-56" edge="1">
                    <mxGeometry relative="1" as="geometry">
                        <Array as="points">
                            <mxPoint x="520" y="690"/>
                            <mxPoint x="380" y="690"/>
                        </Array>
                    </mxGeometry>
                </mxCell>
                <mxCell id="GHJkYI0ExUT0KtiPZ0Wl-67" style="edgeStyle=orthogonalEdgeStyle;rounded=0;orthogonalLoop=1;jettySize=auto;html=1;endArrow=none;endFill=0;startArrow=block;startFill=0;" parent="1" source="GHJkYI0ExUT0KtiPZ0Wl-54" target="GHJkYI0ExUT0KtiPZ0Wl-55" edge="1">
                    <mxGeometry relative="1" as="geometry">
                        <Array as="points">
                            <mxPoint x="520" y="690"/>
                            <mxPoint x="670" y="690"/>
                        </Array>
                    </mxGeometry>
                </mxCell>
                <mxCell id="GHJkYI0ExUT0KtiPZ0Wl-78" style="edgeStyle=orthogonalEdgeStyle;rounded=0;orthogonalLoop=1;jettySize=auto;html=1;endArrow=none;endFill=0;startArrow=diamondThin;startFill=0;startSize=10;endSize=10;" parent="1" source="GHJkYI0ExUT0KtiPZ0Wl-54" target="GHJkYI0ExUT0KtiPZ0Wl-45" edge="1">
                    <mxGeometry relative="1" as="geometry"/>
                </mxCell>
                <mxCell id="GHJkYI0ExUT0KtiPZ0Wl-86" value="Presta" style="edgeLabel;html=1;align=center;verticalAlign=middle;resizable=0;points=[];" parent="GHJkYI0ExUT0KtiPZ0Wl-78" vertex="1" connectable="0">
                    <mxGeometry x="0.5349" y="2" relative="1" as="geometry">
                        <mxPoint as="offset"/>
                    </mxGeometry>
                </mxCell>
                <mxCell id="GHJkYI0ExUT0KtiPZ0Wl-54" value="Personal_de_biblioteca" style="swimlane;fontStyle=0;childLayout=stackLayout;horizontal=1;startSize=26;fillColor=none;horizontalStack=0;resizeParent=1;resizeParentMax=0;resizeLast=0;collapsible=1;marginBottom=0;whiteSpace=wrap;html=1;" parent="1" vertex="1">
                    <mxGeometry x="450" y="600" width="140" height="52" as="geometry"/>
                </mxCell>
                <mxCell id="GHJkYI0ExUT0KtiPZ0Wl-68" style="edgeStyle=orthogonalEdgeStyle;rounded=0;orthogonalLoop=1;jettySize=auto;html=1;startArrow=diamondThin;startFill=0;endArrow=none;endFill=0;startSize=10;" parent="1" source="GHJkYI0ExUT0KtiPZ0Wl-55" target="GHJkYI0ExUT0KtiPZ0Wl-57" edge="1">
                    <mxGeometry relative="1" as="geometry"/>
                </mxCell>
                <mxCell id="GHJkYI0ExUT0KtiPZ0Wl-85" value="genera" style="edgeLabel;html=1;align=center;verticalAlign=middle;resizable=0;points=[];" parent="GHJkYI0ExUT0KtiPZ0Wl-68" vertex="1" connectable="0">
                    <mxGeometry x="0.0561" y="-1" relative="1" as="geometry">
                        <mxPoint as="offset"/>
                    </mxGeometry>
                </mxCell>
                <mxCell id="GHJkYI0ExUT0KtiPZ0Wl-70" style="edgeStyle=orthogonalEdgeStyle;rounded=0;orthogonalLoop=1;jettySize=auto;html=1;endArrow=none;endFill=0;" parent="1" source="GHJkYI0ExUT0KtiPZ0Wl-55" target="GHJkYI0ExUT0KtiPZ0Wl-58" edge="1">
                    <mxGeometry relative="1" as="geometry">
                        <Array as="points">
                            <mxPoint x="510" y="770"/>
                            <mxPoint x="510" y="891"/>
                        </Array>
                    </mxGeometry>
                </mxCell>
                <mxCell id="GHJkYI0ExUT0KtiPZ0Wl-84" value="Envia" style="edgeLabel;html=1;align=center;verticalAlign=middle;resizable=0;points=[];" parent="GHJkYI0ExUT0KtiPZ0Wl-70" vertex="1" connectable="0">
                    <mxGeometry x="0.1636" y="2" relative="1" as="geometry">
                        <mxPoint as="offset"/>
                    </mxGeometry>
                </mxCell>
                <mxCell id="GHJkYI0ExUT0KtiPZ0Wl-55" value="Bibliotecario" style="swimlane;fontStyle=0;childLayout=stackLayout;horizontal=1;startSize=26;fillColor=none;horizontalStack=0;resizeParent=1;resizeParentMax=0;resizeLast=0;collapsible=1;marginBottom=0;whiteSpace=wrap;html=1;" parent="1" vertex="1">
                    <mxGeometry x="600" y="725" width="140" height="52" as="geometry"/>
                </mxCell>
                <mxCell id="GHJkYI0ExUT0KtiPZ0Wl-71" style="edgeStyle=orthogonalEdgeStyle;rounded=0;orthogonalLoop=1;jettySize=auto;html=1;endArrow=diamondThin;endFill=0;endSize=10;startSize=10;" parent="1" source="GHJkYI0ExUT0KtiPZ0Wl-56" target="GHJkYI0ExUT0KtiPZ0Wl-55" edge="1">
                    <mxGeometry relative="1" as="geometry">
                        <Array as="points">
                            <mxPoint x="530" y="740"/>
                            <mxPoint x="530" y="740"/>
                        </Array>
                    </mxGeometry>
                </mxCell>
                <mxCell id="GHJkYI0ExUT0KtiPZ0Wl-56" value="Auxiliar" style="swimlane;fontStyle=0;childLayout=stackLayout;horizontal=1;startSize=26;fillColor=none;horizontalStack=0;resizeParent=1;resizeParentMax=0;resizeLast=0;collapsible=1;marginBottom=0;whiteSpace=wrap;html=1;" parent="1" vertex="1">
                    <mxGeometry x="310" y="725" width="140" height="52" as="geometry"/>
                </mxCell>
                <mxCell id="GHJkYI0ExUT0KtiPZ0Wl-57" value="Reporte" style="swimlane;fontStyle=0;childLayout=stackLayout;horizontal=1;startSize=26;fillColor=none;horizontalStack=0;resizeParent=1;resizeParentMax=0;resizeLast=0;collapsible=1;marginBottom=0;whiteSpace=wrap;html=1;" parent="1" vertex="1">
                    <mxGeometry x="600" y="900" width="140" height="52" as="geometry"/>
                </mxCell>
                <mxCell id="GHJkYI0ExUT0KtiPZ0Wl-69" style="edgeStyle=orthogonalEdgeStyle;rounded=0;orthogonalLoop=1;jettySize=auto;html=1;endArrow=diamondThin;endFill=0;startSize=10;endSize=10;" parent="1" source="GHJkYI0ExUT0KtiPZ0Wl-58" target="GHJkYI0ExUT0KtiPZ0Wl-59" edge="1">
                    <mxGeometry relative="1" as="geometry"/>
                </mxCell>
                <mxCell id="GHJkYI0ExUT0KtiPZ0Wl-83" value="Aprbado" style="edgeLabel;html=1;align=center;verticalAlign=middle;resizable=0;points=[];" parent="GHJkYI0ExUT0KtiPZ0Wl-69" vertex="1" connectable="0">
                    <mxGeometry x="-0.2119" relative="1" as="geometry">
                        <mxPoint as="offset"/>
                    </mxGeometry>
                </mxCell>
                <mxCell id="GHJkYI0ExUT0KtiPZ0Wl-58" value="Solicitud_de_compra" style="swimlane;fontStyle=0;childLayout=stackLayout;horizontal=1;startSize=26;fillColor=none;horizontalStack=0;resizeParent=1;resizeParentMax=0;resizeLast=0;collapsible=1;marginBottom=0;whiteSpace=wrap;html=1;" parent="1" vertex="1">
                    <mxGeometry x="310" y="865" width="140" height="52" as="geometry"/>
                </mxCell>
                <mxCell id="GHJkYI0ExUT0KtiPZ0Wl-75" value="+ ListaDeLibros: string" style="text;strokeColor=none;fillColor=none;align=left;verticalAlign=top;spacingLeft=4;spacingRight=4;overflow=hidden;rotatable=0;points=[[0,0.5],[1,0.5]];portConstraint=eastwest;whiteSpace=wrap;html=1;" parent="GHJkYI0ExUT0KtiPZ0Wl-58" vertex="1">
                    <mxGeometry y="26" width="140" height="26" as="geometry"/>
                </mxCell>
                <mxCell id="GHJkYI0ExUT0KtiPZ0Wl-59" value="Decano" style="swimlane;fontStyle=0;childLayout=stackLayout;horizontal=1;startSize=26;fillColor=none;horizontalStack=0;resizeParent=1;resizeParentMax=0;resizeLast=0;collapsible=1;marginBottom=0;whiteSpace=wrap;html=1;" parent="1" vertex="1">
                    <mxGeometry x="60" y="725" width="140" height="52" as="geometry"/>
                </mxCell>
                <mxCell id="GHJkYI0ExUT0KtiPZ0Wl-65" style="edgeStyle=orthogonalEdgeStyle;rounded=0;orthogonalLoop=1;jettySize=auto;html=1;endArrow=none;endFill=0;startArrow=block;startFill=0;" parent="1" source="GHJkYI0ExUT0KtiPZ0Wl-60" target="GHJkYI0ExUT0KtiPZ0Wl-59" edge="1">
                    <mxGeometry relative="1" as="geometry"/>
                </mxCell>
                <mxCell id="GHJkYI0ExUT0KtiPZ0Wl-60" value="Personal_Directivo" style="swimlane;fontStyle=0;childLayout=stackLayout;horizontal=1;startSize=26;fillColor=none;horizontalStack=0;resizeParent=1;resizeParentMax=0;resizeLast=0;collapsible=1;marginBottom=0;whiteSpace=wrap;html=1;" parent="1" vertex="1">
                    <mxGeometry x="60" y="600" width="140" height="52" as="geometry"/>
                </mxCell>
                <mxCell id="GHJkYI0ExUT0KtiPZ0Wl-77" style="edgeStyle=orthogonalEdgeStyle;rounded=0;orthogonalLoop=1;jettySize=auto;html=1;endArrow=diamondThin;endFill=0;startSize=10;endSize=10;" parent="1" source="GHJkYI0ExUT0KtiPZ0Wl-46" target="GHJkYI0ExUT0KtiPZ0Wl-55" edge="1">
                    <mxGeometry relative="1" as="geometry">
                        <Array as="points">
                            <mxPoint x="800" y="377"/>
                            <mxPoint x="800" y="751"/>
                        </Array>
                    </mxGeometry>
                </mxCell>
                <mxCell id="GHJkYI0ExUT0KtiPZ0Wl-87" value="Administra" style="edgeLabel;html=1;align=center;verticalAlign=middle;resizable=0;points=[];" parent="GHJkYI0ExUT0KtiPZ0Wl-77" vertex="1" connectable="0">
                    <mxGeometry x="-0.1251" y="-1" relative="1" as="geometry">
                        <mxPoint as="offset"/>
                    </mxGeometry>
                </mxCell>
                <mxCell id="GHJkYI0ExUT0KtiPZ0Wl-88" value="1" style="text;html=1;align=center;verticalAlign=middle;whiteSpace=wrap;rounded=0;" parent="1" vertex="1">
                    <mxGeometry x="180" y="350" width="60" height="30" as="geometry"/>
                </mxCell>
                <mxCell id="GHJkYI0ExUT0KtiPZ0Wl-89" value="0.n" style="text;html=1;align=center;verticalAlign=middle;whiteSpace=wrap;rounded=0;" parent="1" vertex="1">
                    <mxGeometry x="210" y="350" width="60" height="30" as="geometry"/>
                </mxCell>
                <mxCell id="GHJkYI0ExUT0KtiPZ0Wl-90" value="1" style="text;html=1;align=center;verticalAlign=middle;whiteSpace=wrap;rounded=0;" parent="1" vertex="1">
                    <mxGeometry x="710" y="308" width="60" height="30" as="geometry"/>
                </mxCell>
                <mxCell id="GHJkYI0ExUT0KtiPZ0Wl-91" value="1.n" style="text;html=1;align=center;verticalAlign=middle;whiteSpace=wrap;rounded=0;" parent="1" vertex="1">
                    <mxGeometry x="710" y="252" width="60" height="30" as="geometry"/>
                </mxCell>
                <mxCell id="GHJkYI0ExUT0KtiPZ0Wl-93" value="0.n" style="text;html=1;align=center;verticalAlign=middle;whiteSpace=wrap;rounded=0;" parent="1" vertex="1">
                    <mxGeometry x="710" y="390" width="60" height="30" as="geometry"/>
                </mxCell>
                <mxCell id="GHJkYI0ExUT0KtiPZ0Wl-94" value="1" style="text;html=1;align=center;verticalAlign=middle;whiteSpace=wrap;rounded=0;" parent="1" vertex="1">
                    <mxGeometry x="590" y="590" width="60" height="30" as="geometry"/>
                </mxCell>
                <mxCell id="GHJkYI0ExUT0KtiPZ0Wl-95" value="1" style="text;html=1;align=center;verticalAlign=middle;whiteSpace=wrap;rounded=0;" parent="1" vertex="1">
                    <mxGeometry x="730" y="720" width="60" height="30" as="geometry"/>
                </mxCell>
                <mxCell id="GHJkYI0ExUT0KtiPZ0Wl-96" value="0.n" style="text;html=1;align=center;verticalAlign=middle;whiteSpace=wrap;rounded=0;" parent="1" vertex="1">
                    <mxGeometry x="760" y="402" width="60" height="30" as="geometry"/>
                </mxCell>
                <mxCell id="GHJkYI0ExUT0KtiPZ0Wl-97" value="0.n" style="text;html=1;align=center;verticalAlign=middle;whiteSpace=wrap;rounded=0;" parent="1" vertex="1">
                    <mxGeometry x="440" y="710" width="60" height="30" as="geometry"/>
                </mxCell>
                <mxCell id="GHJkYI0ExUT0KtiPZ0Wl-98" value="1" style="text;html=1;align=center;verticalAlign=middle;whiteSpace=wrap;rounded=0;" parent="1" vertex="1">
                    <mxGeometry x="550" y="710" width="60" height="30" as="geometry"/>
                </mxCell>
                <mxCell id="GHJkYI0ExUT0KtiPZ0Wl-99" value="1" style="text;html=1;align=center;verticalAlign=middle;whiteSpace=wrap;rounded=0;" parent="1" vertex="1">
                    <mxGeometry x="550" y="777" width="60" height="30" as="geometry"/>
                </mxCell>
                <mxCell id="GHJkYI0ExUT0KtiPZ0Wl-101" value="0.n" style="text;html=1;align=center;verticalAlign=middle;whiteSpace=wrap;rounded=0;" parent="1" vertex="1">
                    <mxGeometry x="460" y="900" width="60" height="30" as="geometry"/>
                </mxCell>
                <mxCell id="GHJkYI0ExUT0KtiPZ0Wl-102" value="1" style="text;html=1;align=center;verticalAlign=middle;whiteSpace=wrap;rounded=0;" parent="1" vertex="1">
                    <mxGeometry x="670" y="787" width="60" height="30" as="geometry"/>
                </mxCell>
                <mxCell id="GHJkYI0ExUT0KtiPZ0Wl-103" value="0.n" style="text;html=1;align=center;verticalAlign=middle;whiteSpace=wrap;rounded=0;" parent="1" vertex="1">
                    <mxGeometry x="660" y="870" width="60" height="30" as="geometry"/>
                </mxCell>
                <mxCell id="GHJkYI0ExUT0KtiPZ0Wl-104" value="1" style="text;html=1;align=center;verticalAlign=middle;whiteSpace=wrap;rounded=0;" parent="1" vertex="1">
                    <mxGeometry x="120" y="777" width="60" height="30" as="geometry"/>
                </mxCell>
                <mxCell id="GHJkYI0ExUT0KtiPZ0Wl-105" value="0.n" style="text;html=1;align=center;verticalAlign=middle;whiteSpace=wrap;rounded=0;" parent="1" vertex="1">
                    <mxGeometry x="250" y="865" width="60" height="30" as="geometry"/>
                </mxCell>
            </root>
        </mxGraphModel>
    </diagram>
    <diagram id="lvReID3-wEMcTsC3HQ-W" name="PÃ¡gina-2">
        <mxGraphModel dx="956" dy="543" grid="1" gridSize="10" guides="1" tooltips="1" connect="1" arrows="1" fold="1" page="1" pageScale="1" pageWidth="827" pageHeight="1169" math="0" shadow="0">
            <root>
                <mxCell id="0"/>
                <mxCell id="1" parent="0"/>
                <mxCell id="hInMpgcAJSA_peFWVr3f-8" value="Vista" style="shape=umlLifeline;perimeter=lifelinePerimeter;whiteSpace=wrap;html=1;container=1;dropTarget=0;collapsible=0;recursiveResize=0;outlineConnect=0;portConstraint=eastwest;newEdgeStyle={&quot;edgeStyle&quot;:&quot;elbowEdgeStyle&quot;,&quot;elbow&quot;:&quot;vertical&quot;,&quot;curved&quot;:0,&quot;rounded&quot;:0};" parent="1" vertex="1">
                    <mxGeometry x="240" y="290" width="100" height="450" as="geometry"/>
                </mxCell>
                <mxCell id="hInMpgcAJSA_peFWVr3f-12" value="Controlador" style="shape=umlLifeline;perimeter=lifelinePerimeter;whiteSpace=wrap;html=1;container=1;dropTarget=0;collapsible=0;recursiveResize=0;outlineConnect=0;portConstraint=eastwest;newEdgeStyle={&quot;edgeStyle&quot;:&quot;elbowEdgeStyle&quot;,&quot;elbow&quot;:&quot;vertical&quot;,&quot;curved&quot;:0,&quot;rounded&quot;:0};" parent="1" vertex="1">
                    <mxGeometry x="420" y="290" width="100" height="460" as="geometry"/>
                </mxCell>
                <mxCell id="hInMpgcAJSA_peFWVr3f-14" value="Modelo" style="shape=umlLifeline;perimeter=lifelinePerimeter;whiteSpace=wrap;html=1;container=1;dropTarget=0;collapsible=0;recursiveResize=0;outlineConnect=0;portConstraint=eastwest;newEdgeStyle={&quot;edgeStyle&quot;:&quot;elbowEdgeStyle&quot;,&quot;elbow&quot;:&quot;vertical&quot;,&quot;curved&quot;:0,&quot;rounded&quot;:0};" parent="1" vertex="1">
                    <mxGeometry x="600" y="290" width="100" height="450" as="geometry"/>
                </mxCell>
                <mxCell id="hInMpgcAJSA_peFWVr3f-9" value="" style="html=1;points=[[0,0,0,0,5],[0,1,0,0,-5],[1,0,0,0,5],[1,1,0,0,-5]];perimeter=orthogonalPerimeter;outlineConnect=0;targetShapes=umlLifeline;portConstraint=eastwest;newEdgeStyle={&quot;curved&quot;:0,&quot;rounded&quot;:0};fillColor=#808080;" parent="hInMpgcAJSA_peFWVr3f-14" vertex="1">
                    <mxGeometry x="-315" y="90" width="10" height="300.75" as="geometry"/>
                </mxCell>
                <mxCell id="hInMpgcAJSA_peFWVr3f-15" value="" style="html=1;points=[[0,0,0,0,5],[0,1,0,0,-5],[1,0,0,0,5],[1,1,0,0,-5]];perimeter=orthogonalPerimeter;outlineConnect=0;targetShapes=umlLifeline;portConstraint=eastwest;newEdgeStyle={&quot;curved&quot;:0,&quot;rounded&quot;:0};fillColor=#808080;" parent="hInMpgcAJSA_peFWVr3f-14" vertex="1">
                    <mxGeometry x="45" y="130" width="10" height="210.75" as="geometry"/>
                </mxCell>
                <mxCell id="hInMpgcAJSA_peFWVr3f-18" value="" style="endArrow=classic;startArrow=none;endFill=1;startFill=0;endSize=8;html=1;verticalAlign=bottom;labelBackgroundColor=none;strokeWidth=1;rounded=0;exitX=-0.1;exitY=-0.005;exitDx=0;exitDy=0;exitPerimeter=0;" parent="hInMpgcAJSA_peFWVr3f-14" target="hInMpgcAJSA_peFWVr3f-9" edge="1">
                    <mxGeometry width="160" relative="1" as="geometry">
                        <mxPoint x="-471" y="250" as="sourcePoint"/>
                        <mxPoint x="-290" y="320.75" as="targetPoint"/>
                    </mxGeometry>
                </mxCell>
                <mxCell id="hInMpgcAJSA_peFWVr3f-24" style="edgeStyle=orthogonalEdgeStyle;rounded=0;orthogonalLoop=1;jettySize=auto;html=1;curved=0;" parent="hInMpgcAJSA_peFWVr3f-14" source="hInMpgcAJSA_peFWVr3f-9" edge="1">
                    <mxGeometry relative="1" as="geometry">
                        <Array as="points">
                            <mxPoint x="-220" y="270.75"/>
                            <mxPoint x="-220" y="270.75"/>
                        </Array>
                        <mxPoint x="-130.5" y="270.7844827586207" as="targetPoint"/>
                    </mxGeometry>
                </mxCell>
                <mxCell id="hInMpgcAJSA_peFWVr3f-26" style="edgeStyle=orthogonalEdgeStyle;rounded=0;orthogonalLoop=1;jettySize=auto;html=1;curved=0;" parent="hInMpgcAJSA_peFWVr3f-14" source="hInMpgcAJSA_peFWVr3f-13" target="hInMpgcAJSA_peFWVr3f-15" edge="1">
                    <mxGeometry relative="1" as="geometry">
                        <Array as="points">
                            <mxPoint x="-40" y="290.75"/>
                            <mxPoint x="-40" y="290.75"/>
                        </Array>
                    </mxGeometry>
                </mxCell>
                <mxCell id="hInMpgcAJSA_peFWVr3f-27" style="edgeStyle=orthogonalEdgeStyle;rounded=0;orthogonalLoop=1;jettySize=auto;html=1;curved=0;dashed=1;" parent="hInMpgcAJSA_peFWVr3f-14" source="hInMpgcAJSA_peFWVr3f-15" target="hInMpgcAJSA_peFWVr3f-13" edge="1">
                    <mxGeometry relative="1" as="geometry">
                        <mxPoint x="-120" y="340.75" as="targetPoint"/>
                        <Array as="points">
                            <mxPoint x="-40" y="340.75"/>
                            <mxPoint x="-40" y="340.75"/>
                        </Array>
                    </mxGeometry>
                </mxCell>
                <mxCell id="hInMpgcAJSA_peFWVr3f-28" value="7. Actualizar estado del usuario en la base de datos" style="text;html=1;align=center;verticalAlign=middle;whiteSpace=wrap;rounded=0;" parent="hInMpgcAJSA_peFWVr3f-14" vertex="1">
                    <mxGeometry x="-100" y="250.75" width="130" height="30" as="geometry"/>
                </mxCell>
                <mxCell id="hInMpgcAJSA_peFWVr3f-29" value="8. Usuario dado de baja" style="text;html=1;align=center;verticalAlign=middle;whiteSpace=wrap;rounded=0;" parent="hInMpgcAJSA_peFWVr3f-14" vertex="1">
                    <mxGeometry x="-100" y="310.75" width="130" height="30" as="geometry"/>
                </mxCell>
                <mxCell id="hInMpgcAJSA_peFWVr3f-30" style="edgeStyle=orthogonalEdgeStyle;rounded=0;orthogonalLoop=1;jettySize=auto;html=1;curved=0;dashed=1;" parent="hInMpgcAJSA_peFWVr3f-14" source="hInMpgcAJSA_peFWVr3f-13" target="hInMpgcAJSA_peFWVr3f-9" edge="1">
                    <mxGeometry relative="1" as="geometry">
                        <mxPoint x="-310" y="370.75" as="targetPoint"/>
                        <Array as="points">
                            <mxPoint x="-220" y="370.75"/>
                            <mxPoint x="-220" y="370.75"/>
                        </Array>
                    </mxGeometry>
                </mxCell>
                <mxCell id="hInMpgcAJSA_peFWVr3f-31" value="9. Confirmar baja exitosa" style="text;html=1;align=center;verticalAlign=middle;whiteSpace=wrap;rounded=0;" parent="hInMpgcAJSA_peFWVr3f-14" vertex="1">
                    <mxGeometry x="-290" y="340.75" width="140" height="30" as="geometry"/>
                </mxCell>
                <mxCell id="hInMpgcAJSA_peFWVr3f-33" style="edgeStyle=orthogonalEdgeStyle;rounded=0;orthogonalLoop=1;jettySize=auto;html=1;curved=0;dashed=1;" parent="hInMpgcAJSA_peFWVr3f-14" source="hInMpgcAJSA_peFWVr3f-9" edge="1">
                    <mxGeometry relative="1" as="geometry">
                        <mxPoint x="-460" y="390.75" as="targetPoint"/>
                        <Array as="points">
                            <mxPoint x="-460" y="390.75"/>
                        </Array>
                    </mxGeometry>
                </mxCell>
                <mxCell id="hInMpgcAJSA_peFWVr3f-34" value="10. Mostrar confirmaciÃ³n de baja de usaurio" style="text;html=1;align=center;verticalAlign=middle;whiteSpace=wrap;rounded=0;" parent="hInMpgcAJSA_peFWVr3f-14" vertex="1">
                    <mxGeometry x="-460" y="360.75" width="140" height="30" as="geometry"/>
                </mxCell>
                <mxCell id="SkTHFBQ6cWAcW_vPnWUp-6" value="" style="html=1;points=[[0,0,0,0,5],[0,1,0,0,-5],[1,0,0,0,5],[1,1,0,0,-5]];perimeter=orthogonalPerimeter;outlineConnect=0;targetShapes=umlLifeline;portConstraint=eastwest;newEdgeStyle={&quot;curved&quot;:0,&quot;rounded&quot;:0};fillColor=#808080;" parent="hInMpgcAJSA_peFWVr3f-14" vertex="1">
                    <mxGeometry x="-475" y="90" width="10" height="310" as="geometry"/>
                </mxCell>
                <mxCell id="hInMpgcAJSA_peFWVr3f-13" value="" style="html=1;points=[[0,0,0,0,5],[0,1,0,0,-5],[1,0,0,0,5],[1,1,0,0,-5]];perimeter=orthogonalPerimeter;outlineConnect=0;targetShapes=umlLifeline;portConstraint=eastwest;newEdgeStyle={&quot;curved&quot;:0,&quot;rounded&quot;:0};fillColor=#808080;" parent="hInMpgcAJSA_peFWVr3f-14" vertex="1">
                    <mxGeometry x="-135" y="150" width="10" height="220.75" as="geometry"/>
                </mxCell>
                <mxCell id="hInMpgcAJSA_peFWVr3f-35" value="Dar de baja usuario" style="shape=umlFrame;whiteSpace=wrap;html=1;pointerEvents=0;recursiveResize=0;container=1;collapsible=0;width=160;" parent="1" vertex="1">
                    <mxGeometry x="50" y="200" width="720" height="590" as="geometry"/>
                </mxCell>
                <mxCell id="SkTHFBQ6cWAcW_vPnWUp-5" value="Administrador" style="shape=umlLifeline;perimeter=lifelinePerimeter;whiteSpace=wrap;html=1;container=1;dropTarget=0;collapsible=0;recursiveResize=0;outlineConnect=0;portConstraint=eastwest;newEdgeStyle={&quot;edgeStyle&quot;:&quot;elbowEdgeStyle&quot;,&quot;elbow&quot;:&quot;vertical&quot;,&quot;curved&quot;:0,&quot;rounded&quot;:0};" parent="hInMpgcAJSA_peFWVr3f-35" vertex="1">
                    <mxGeometry x="30" y="90" width="100" height="450" as="geometry"/>
                </mxCell>
                <mxCell id="hInMpgcAJSA_peFWVr3f-25" value="6. Enviar solicitud de baja de usuario" style="text;html=1;align=center;verticalAlign=middle;whiteSpace=wrap;rounded=0;" parent="hInMpgcAJSA_peFWVr3f-35" vertex="1">
                    <mxGeometry x="275" y="310.75" width="110" height="30" as="geometry"/>
                </mxCell>
                <mxCell id="hInMpgcAJSA_peFWVr3f-22" value="5. Seleccionar usuario para dar de baja" style="text;html=1;align=center;verticalAlign=middle;whiteSpace=wrap;rounded=0;" parent="hInMpgcAJSA_peFWVr3f-35" vertex="1">
                    <mxGeometry x="100" y="300" width="110" height="30" as="geometry"/>
                </mxCell>
                <mxCell id="EzHFCBu2Nva16xuh4T83-1" value="&lt;span style=&quot;color: rgb(0, 0, 0); font-family: Helvetica; font-size: 11px; font-style: normal; font-variant-ligatures: normal; font-variant-caps: normal; font-weight: 400; letter-spacing: normal; orphans: 2; text-align: center; text-indent: 0px; text-transform: none; widows: 2; word-spacing: 0px; -webkit-text-stroke-width: 0px; white-space: nowrap; background-color: rgb(251, 251, 251); text-decoration-thickness: initial; text-decoration-style: initial; text-decoration-color: initial; display: inline !important; float: none;&quot;&gt;1. autentifiacion&lt;/span&gt;" style="text;whiteSpace=wrap;html=1;" parent="hInMpgcAJSA_peFWVr3f-35" vertex="1">
                    <mxGeometry x="110" y="180" width="110" height="40" as="geometry"/>
                </mxCell>
                <mxCell id="EzHFCBu2Nva16xuh4T83-2" value="" style="endArrow=classic;startArrow=none;endFill=1;startFill=0;endSize=8;html=1;verticalAlign=bottom;labelBackgroundColor=none;strokeWidth=1;rounded=0;exitX=-0.1;exitY=-0.005;exitDx=0;exitDy=0;exitPerimeter=0;" parent="hInMpgcAJSA_peFWVr3f-35" edge="1">
                    <mxGeometry width="160" relative="1" as="geometry">
                        <mxPoint x="80" y="210" as="sourcePoint"/>
                        <mxPoint x="236" y="210" as="targetPoint"/>
                    </mxGeometry>
                </mxCell>
                <mxCell id="EzHFCBu2Nva16xuh4T83-3" value="&lt;span style=&quot;color: rgb(0, 0, 0); font-family: Helvetica; font-size: 11px; font-style: normal; font-variant-ligatures: normal; font-variant-caps: normal; font-weight: 400; letter-spacing: normal; orphans: 2; text-align: center; text-indent: 0px; text-transform: none; widows: 2; word-spacing: 0px; -webkit-text-stroke-width: 0px; white-space: nowrap; background-color: rgb(251, 251, 251); text-decoration-thickness: initial; text-decoration-style: initial; text-decoration-color: initial; display: inline !important; float: none;&quot;&gt;2. verificacion de datos&lt;/span&gt;" style="text;whiteSpace=wrap;html=1;" parent="hInMpgcAJSA_peFWVr3f-35" vertex="1">
                    <mxGeometry x="280" y="190" width="110" height="40" as="geometry"/>
                </mxCell>
                <mxCell id="EzHFCBu2Nva16xuh4T83-4" value="" style="endArrow=classic;startArrow=none;endFill=1;startFill=0;endSize=8;html=1;verticalAlign=bottom;labelBackgroundColor=none;strokeWidth=1;rounded=0;exitX=-0.1;exitY=-0.005;exitDx=0;exitDy=0;exitPerimeter=0;" parent="hInMpgcAJSA_peFWVr3f-35" target="hInMpgcAJSA_peFWVr3f-15" edge="1">
                    <mxGeometry width="160" relative="1" as="geometry">
                        <mxPoint x="250" y="220" as="sourcePoint"/>
                        <mxPoint x="406" y="220" as="targetPoint"/>
                    </mxGeometry>
                </mxCell>
                <mxCell id="ryBS9673zNz7JAAXlrUC-1" value="&lt;span style=&quot;color: rgb(0, 0, 0); font-family: Helvetica; font-size: 11px; font-style: normal; font-variant-ligatures: normal; font-variant-caps: normal; font-weight: 400; letter-spacing: normal; orphans: 2; text-align: center; text-indent: 0px; text-transform: none; widows: 2; word-spacing: 0px; -webkit-text-stroke-width: 0px; white-space: nowrap; background-color: rgb(251, 251, 251); text-decoration-thickness: initial; text-decoration-style: initial; text-decoration-color: initial; display: inline !important; float: none;&quot;&gt;3. Datos verificados&lt;/span&gt;" style="text;whiteSpace=wrap;html=1;" parent="hInMpgcAJSA_peFWVr3f-35" vertex="1">
                    <mxGeometry x="295" y="250" width="130" height="40" as="geometry"/>
                </mxCell>
                <mxCell id="ryBS9673zNz7JAAXlrUC-2" style="edgeStyle=orthogonalEdgeStyle;rounded=0;orthogonalLoop=1;jettySize=auto;html=1;curved=0;dashed=1;" parent="hInMpgcAJSA_peFWVr3f-35" target="hInMpgcAJSA_peFWVr3f-9" edge="1">
                    <mxGeometry relative="1" as="geometry">
                        <mxPoint x="425" y="280" as="targetPoint"/>
                        <Array as="points">
                            <mxPoint x="595" y="281"/>
                        </Array>
                        <mxPoint x="595" y="280" as="sourcePoint"/>
                    </mxGeometry>
                </mxCell>
                <mxCell id="s5EbsLhPye_a7F4-T6EM-1" style="edgeStyle=orthogonalEdgeStyle;rounded=0;orthogonalLoop=1;jettySize=auto;html=1;curved=0;dashed=1;" parent="hInMpgcAJSA_peFWVr3f-35" source="hInMpgcAJSA_peFWVr3f-9" edge="1">
                    <mxGeometry relative="1" as="geometry">
                        <mxPoint x="90" y="291" as="targetPoint"/>
                        <Array as="points">
                            <mxPoint x="230" y="290"/>
                        </Array>
                        <mxPoint x="425" y="290" as="sourcePoint"/>
                    </mxGeometry>
                </mxCell>
                <mxCell id="s5EbsLhPye_a7F4-T6EM-2" value="&lt;span style=&quot;color: rgb(0, 0, 0); font-family: Helvetica; font-size: 11px; font-style: normal; font-variant-ligatures: normal; font-variant-caps: normal; font-weight: 400; letter-spacing: normal; orphans: 2; text-align: center; text-indent: 0px; text-transform: none; widows: 2; word-spacing: 0px; -webkit-text-stroke-width: 0px; white-space: nowrap; background-color: rgb(251, 251, 251); text-decoration-thickness: initial; text-decoration-style: initial; text-decoration-color: initial; display: inline !important; float: none;&quot;&gt;4.autorizacion&lt;/span&gt;" style="text;whiteSpace=wrap;html=1;" parent="hInMpgcAJSA_peFWVr3f-35" vertex="1">
                    <mxGeometry x="110" y="260" width="110" height="40" as="geometry"/>
                </mxCell>
            </root>
        </mxGraphModel>
    </diagram>
    <diagram id="AZmDbzBfnilhdC4eNurG" name="PÃ¡gina-3">
        <mxGraphModel dx="1386" dy="787" grid="1" gridSize="10" guides="1" tooltips="1" connect="1" arrows="1" fold="1" page="1" pageScale="1" pageWidth="827" pageHeight="1169" math="0" shadow="0">
            <root>
                <mxCell id="0"/>
                <mxCell id="1" parent="0"/>
                <mxCell id="Kt_WH-T3Q5SyRcR1PZPV-1" value="Bibliotecario" style="shape=umlActor;verticalLabelPosition=bottom;verticalAlign=top;html=1;" parent="1" vertex="1">
                    <mxGeometry x="120" y="260" width="30" height="60" as="geometry"/>
                </mxCell>
                <mxCell id="Kt_WH-T3Q5SyRcR1PZPV-2" value="" style="endArrow=none;startArrow=none;endFill=0;startFill=0;endSize=8;html=1;verticalAlign=bottom;dashed=1;labelBackgroundColor=none;rounded=0;" parent="1" edge="1">
                    <mxGeometry width="160" relative="1" as="geometry">
                        <mxPoint x="135" y="340" as="sourcePoint"/>
                        <mxPoint x="135" y="730" as="targetPoint"/>
                    </mxGeometry>
                </mxCell>
                <mxCell id="Kt_WH-T3Q5SyRcR1PZPV-3" value="Vista" style="shape=umlLifeline;perimeter=lifelinePerimeter;whiteSpace=wrap;html=1;container=1;dropTarget=0;collapsible=0;recursiveResize=0;outlineConnect=0;portConstraint=eastwest;newEdgeStyle={&quot;edgeStyle&quot;:&quot;elbowEdgeStyle&quot;,&quot;elbow&quot;:&quot;vertical&quot;,&quot;curved&quot;:0,&quot;rounded&quot;:0};" parent="1" vertex="1">
                    <mxGeometry x="240" y="290" width="100" height="430" as="geometry"/>
                </mxCell>
                <mxCell id="Kt_WH-T3Q5SyRcR1PZPV-5" value="Controlador" style="shape=umlLifeline;perimeter=lifelinePerimeter;whiteSpace=wrap;html=1;container=1;dropTarget=0;collapsible=0;recursiveResize=0;outlineConnect=0;portConstraint=eastwest;newEdgeStyle={&quot;edgeStyle&quot;:&quot;elbowEdgeStyle&quot;,&quot;elbow&quot;:&quot;vertical&quot;,&quot;curved&quot;:0,&quot;rounded&quot;:0};" parent="1" vertex="1">
                    <mxGeometry x="420" y="290" width="100" height="430" as="geometry"/>
                </mxCell>
                <mxCell id="Kt_WH-T3Q5SyRcR1PZPV-7" value="Modelo" style="shape=umlLifeline;perimeter=lifelinePerimeter;whiteSpace=wrap;html=1;container=1;dropTarget=0;collapsible=0;recursiveResize=0;outlineConnect=0;portConstraint=eastwest;newEdgeStyle={&quot;edgeStyle&quot;:&quot;elbowEdgeStyle&quot;,&quot;elbow&quot;:&quot;vertical&quot;,&quot;curved&quot;:0,&quot;rounded&quot;:0};" parent="1" vertex="1">
                    <mxGeometry x="600" y="290" width="100" height="430" as="geometry"/>
                </mxCell>
                <mxCell id="Kt_WH-T3Q5SyRcR1PZPV-4" value="" style="html=1;points=[[0,0,0,0,5],[0,1,0,0,-5],[1,0,0,0,5],[1,1,0,0,-5]];perimeter=orthogonalPerimeter;outlineConnect=0;targetShapes=umlLifeline;portConstraint=eastwest;newEdgeStyle={&quot;curved&quot;:0,&quot;rounded&quot;:0};fillColor=#808080;" parent="Kt_WH-T3Q5SyRcR1PZPV-7" vertex="1">
                    <mxGeometry x="-315" y="100" width="10" height="290" as="geometry"/>
                </mxCell>
                <mxCell id="Kt_WH-T3Q5SyRcR1PZPV-6" value="" style="html=1;points=[[0,0,0,0,5],[0,1,0,0,-5],[1,0,0,0,5],[1,1,0,0,-5]];perimeter=orthogonalPerimeter;outlineConnect=0;targetShapes=umlLifeline;portConstraint=eastwest;newEdgeStyle={&quot;curved&quot;:0,&quot;rounded&quot;:0};fillColor=#808080;" parent="Kt_WH-T3Q5SyRcR1PZPV-7" vertex="1">
                    <mxGeometry x="-135" y="270" width="10" height="100" as="geometry"/>
                </mxCell>
                <mxCell id="Kt_WH-T3Q5SyRcR1PZPV-8" value="" style="html=1;points=[[0,0,0,0,5],[0,1,0,0,-5],[1,0,0,0,5],[1,1,0,0,-5]];perimeter=orthogonalPerimeter;outlineConnect=0;targetShapes=umlLifeline;portConstraint=eastwest;newEdgeStyle={&quot;curved&quot;:0,&quot;rounded&quot;:0};fillColor=#808080;" parent="Kt_WH-T3Q5SyRcR1PZPV-7" vertex="1">
                    <mxGeometry x="45" y="110" width="10" height="230" as="geometry"/>
                </mxCell>
                <mxCell id="Kt_WH-T3Q5SyRcR1PZPV-9" value="" style="endArrow=classic;startArrow=none;endFill=1;startFill=0;endSize=8;html=1;verticalAlign=bottom;labelBackgroundColor=none;strokeWidth=1;rounded=0;" parent="Kt_WH-T3Q5SyRcR1PZPV-7" source="Kt_WH-T3Q5SyRcR1PZPV-10" target="Kt_WH-T3Q5SyRcR1PZPV-4" edge="1">
                    <mxGeometry width="160" relative="1" as="geometry">
                        <mxPoint x="-460" y="250" as="sourcePoint"/>
                        <mxPoint x="-290" y="320" as="targetPoint"/>
                    </mxGeometry>
                </mxCell>
                <mxCell id="Kt_WH-T3Q5SyRcR1PZPV-10" value="" style="html=1;points=[];perimeter=orthogonalPerimeter;fillColor=strokeColor;strokeColor=#757575;" parent="Kt_WH-T3Q5SyRcR1PZPV-7" vertex="1">
                    <mxGeometry x="-470" y="90" width="10" height="310" as="geometry"/>
                </mxCell>
                <mxCell id="Kt_WH-T3Q5SyRcR1PZPV-12" style="edgeStyle=orthogonalEdgeStyle;rounded=0;orthogonalLoop=1;jettySize=auto;html=1;curved=0;" parent="Kt_WH-T3Q5SyRcR1PZPV-7" source="Kt_WH-T3Q5SyRcR1PZPV-4" edge="1">
                    <mxGeometry relative="1" as="geometry">
                        <Array as="points">
                            <mxPoint x="-220" y="270"/>
                            <mxPoint x="-220" y="270"/>
                        </Array>
                        <mxPoint x="-130.5" y="270" as="targetPoint"/>
                    </mxGeometry>
                </mxCell>
                <mxCell id="Kt_WH-T3Q5SyRcR1PZPV-13" value="6. Enviar solicitud de baja" style="text;html=1;align=center;verticalAlign=middle;whiteSpace=wrap;rounded=0;" parent="Kt_WH-T3Q5SyRcR1PZPV-7" vertex="1">
                    <mxGeometry x="-280" y="230" width="110" height="30" as="geometry"/>
                </mxCell>
                <mxCell id="Kt_WH-T3Q5SyRcR1PZPV-14" style="edgeStyle=orthogonalEdgeStyle;rounded=0;orthogonalLoop=1;jettySize=auto;html=1;curved=0;" parent="Kt_WH-T3Q5SyRcR1PZPV-7" source="Kt_WH-T3Q5SyRcR1PZPV-6" target="Kt_WH-T3Q5SyRcR1PZPV-8" edge="1">
                    <mxGeometry relative="1" as="geometry">
                        <Array as="points">
                            <mxPoint x="-40" y="290"/>
                            <mxPoint x="-40" y="290"/>
                        </Array>
                    </mxGeometry>
                </mxCell>
                <mxCell id="Kt_WH-T3Q5SyRcR1PZPV-15" style="edgeStyle=orthogonalEdgeStyle;rounded=0;orthogonalLoop=1;jettySize=auto;html=1;curved=0;dashed=1;" parent="Kt_WH-T3Q5SyRcR1PZPV-7" source="Kt_WH-T3Q5SyRcR1PZPV-8" target="Kt_WH-T3Q5SyRcR1PZPV-6" edge="1">
                    <mxGeometry relative="1" as="geometry">
                        <mxPoint x="-120" y="340" as="targetPoint"/>
                        <Array as="points">
                            <mxPoint x="-40" y="340"/>
                            <mxPoint x="-40" y="340"/>
                        </Array>
                    </mxGeometry>
                </mxCell>
                <mxCell id="Kt_WH-T3Q5SyRcR1PZPV-16" value="7. Actualizar estado del libro en la base de datos" style="text;html=1;align=center;verticalAlign=middle;whiteSpace=wrap;rounded=0;" parent="Kt_WH-T3Q5SyRcR1PZPV-7" vertex="1">
                    <mxGeometry x="-100" y="250" width="140" height="30" as="geometry"/>
                </mxCell>
                <mxCell id="Kt_WH-T3Q5SyRcR1PZPV-17" value="8. Libro dado de baja" style="text;html=1;align=center;verticalAlign=middle;whiteSpace=wrap;rounded=0;" parent="Kt_WH-T3Q5SyRcR1PZPV-7" vertex="1">
                    <mxGeometry x="-100" y="310" width="130" height="30" as="geometry"/>
                </mxCell>
                <mxCell id="Kt_WH-T3Q5SyRcR1PZPV-18" style="edgeStyle=orthogonalEdgeStyle;rounded=0;orthogonalLoop=1;jettySize=auto;html=1;curved=0;dashed=1;" parent="Kt_WH-T3Q5SyRcR1PZPV-7" source="Kt_WH-T3Q5SyRcR1PZPV-6" target="Kt_WH-T3Q5SyRcR1PZPV-4" edge="1">
                    <mxGeometry relative="1" as="geometry">
                        <mxPoint x="-310" y="370" as="targetPoint"/>
                        <Array as="points">
                            <mxPoint x="-220" y="370"/>
                            <mxPoint x="-220" y="370"/>
                        </Array>
                    </mxGeometry>
                </mxCell>
                <mxCell id="Kt_WH-T3Q5SyRcR1PZPV-19" value="9. Confirmar baja exitosa" style="text;html=1;align=center;verticalAlign=middle;whiteSpace=wrap;rounded=0;" parent="Kt_WH-T3Q5SyRcR1PZPV-7" vertex="1">
                    <mxGeometry x="-290" y="340" width="140" height="30" as="geometry"/>
                </mxCell>
                <mxCell id="Kt_WH-T3Q5SyRcR1PZPV-20" style="edgeStyle=orthogonalEdgeStyle;rounded=0;orthogonalLoop=1;jettySize=auto;html=1;curved=0;dashed=1;" parent="Kt_WH-T3Q5SyRcR1PZPV-7" source="Kt_WH-T3Q5SyRcR1PZPV-4" edge="1">
                    <mxGeometry relative="1" as="geometry">
                        <mxPoint x="-460" y="390" as="targetPoint"/>
                        <Array as="points">
                            <mxPoint x="-460" y="390"/>
                        </Array>
                    </mxGeometry>
                </mxCell>
                <mxCell id="Kt_WH-T3Q5SyRcR1PZPV-21" value="10. Mostrar confirmaciÃ³n de baja" style="text;html=1;align=center;verticalAlign=middle;whiteSpace=wrap;rounded=0;" parent="Kt_WH-T3Q5SyRcR1PZPV-7" vertex="1">
                    <mxGeometry x="-460" y="360" width="140" height="30" as="geometry"/>
                </mxCell>
                <mxCell id="Kt_WH-T3Q5SyRcR1PZPV-22" value="Dar de baja Libro" style="shape=umlFrame;whiteSpace=wrap;html=1;pointerEvents=0;recursiveResize=0;container=1;collapsible=0;width=160;" parent="1" vertex="1">
                    <mxGeometry x="54" y="220" width="720" height="540" as="geometry"/>
                </mxCell>
                <mxCell id="Kt_WH-T3Q5SyRcR1PZPV-11" value="5. Seleccionar libro para dar de baja" style="text;html=1;align=center;verticalAlign=middle;whiteSpace=wrap;rounded=0;" parent="Kt_WH-T3Q5SyRcR1PZPV-22" vertex="1">
                    <mxGeometry x="96" y="280" width="110" height="30" as="geometry"/>
                </mxCell>
                <mxCell id="HtbTtlTuZfal81hQmDuH-9" value="&lt;span style=&quot;color: rgba(0, 0, 0, 0); font-family: monospace; font-size: 0px; text-align: start;&quot;&gt;%3CmxGraphModel%3E%3Croot%3E%3CmxCell%20id%3D%220%22%2F%3E%3CmxCell%20id%3D%221%22%20parent%3D%220%22%2F%3E%3CmxCell%20id%3D%222%22%20value%3D%22%26lt%3Bspan%20style%3D%26quot%3Bcolor%3A%20rgb(0%2C%200%2C%200)%3B%20font-family%3A%20Helvetica%3B%20font-size%3A%2011px%3B%20font-style%3A%20normal%3B%20font-variant-ligatures%3A%20normal%3B%20font-variant-caps%3A%20normal%3B%20font-weight%3A%20400%3B%20letter-spacing%3A%20normal%3B%20orphans%3A%202%3B%20text-align%3A%20center%3B%20text-indent%3A%200px%3B%20text-transform%3A%20none%3B%20widows%3A%202%3B%20word-spacing%3A%200px%3B%20-webkit-text-stroke-width%3A%200px%3B%20white-space%3A%20nowrap%3B%20background-color%3A%20rgb(251%2C%20251%2C%20251)%3B%20text-decoration-thickness%3A%20initial%3B%20text-decoration-style%3A%20initial%3B%20text-decoration-color%3A%20initial%3B%20display%3A%20inline%20!important%3B%20float%3A%20none%3B%26quot%3B%26gt%3B1.%20autentifiacion%26lt%3B%2Fspan%26gt%3B%22%20style%3D%22text%3BwhiteSpace%3Dwrap%3Bhtml%3D1%3B%22%20vertex%3D%221%22%20parent%3D%221%22%3E%3CmxGeometry%20x%3D%22160%22%20y%3D%22380%22%20width%3D%22110%22%20height%3D%2240%22%20as%3D%22geometry%22%2F%3E%3C%2FmxCell%3E%3CmxCell%20id%3D%223%22%20value%3D%22%22%20style%3D%22endArrow%3Dclassic%3BstartArrow%3Dnone%3BendFill%3D1%3BstartFill%3D0%3BendSize%3D8%3Bhtml%3D1%3BverticalAlign%3Dbottom%3BlabelBackgroundColor%3Dnone%3BstrokeWidth%3D1%3Brounded%3D0%3BexitX%3D-0.1%3BexitY%3D-0.005%3BexitDx%3D0%3BexitDy%3D0%3BexitPerimeter%3D0%3B%22%20edge%3D%221%22%20parent%3D%221%22%3E%3CmxGeometry%20width%3D%22160%22%20relative%3D%221%22%20as%3D%22geometry%22%3E%3CmxPoint%20x%3D%22130%22%20y%3D%22410%22%20as%3D%22sourcePoint%22%2F%3E%3CmxPoint%20x%3D%22286%22%20y%3D%22410%22%20as%3D%22targetPoint%22%2F%3E%3C%2FmxGeometry%3E%3C%2FmxCell%3E%3CmxCell%20id%3D%224%22%20value%3D%22%26lt%3Bspan%20style%3D%26quot%3Bcolor%3A%20rgb(0%2C%200%2C%200)%3B%20font-family%3A%20Helvetica%3B%20font-size%3A%2011px%3B%20font-style%3A%20normal%3B%20font-variant-ligatures%3A%20normal%3B%20font-variant-caps%3A%20normal%3B%20font-weight%3A%20400%3B%20letter-spacing%3A%20normal%3B%20orphans%3A%202%3B%20text-align%3A%20center%3B%20text-indent%3A%200px%3B%20text-transform%3A%20none%3B%20widows%3A%202%3B%20word-spacing%3A%200px%3B%20-webkit-text-stroke-width%3A%200px%3B%20white-space%3A%20nowrap%3B%20background-color%3A%20rgb(251%2C%20251%2C%20251)%3B%20text-decoration-thickness%3A%20initial%3B%20text-decoration-style%3A%20initial%3B%20text-decoration-color%3A%20initial%3B%20display%3A%20inline%20!important%3B%20float%3A%20none%3B%26quot%3B%26gt%3B2.%20verificacion%20de%20datos%26lt%3B%2Fspan%26gt%3B%22%20style%3D%22text%3BwhiteSpace%3Dwrap%3Bhtml%3D1%3B%22%20vertex%3D%221%22%20parent%3D%221%22%3E%3CmxGeometry%20x%3D%22330%22%20y%3D%22390%22%20width%3D%22110%22%20height%3D%2240%22%20as%3D%22geometry%22%2F%3E%3C%2FmxCell%3E%3CmxCell%20id%3D%225%22%20value%3D%22%22%20style%3D%22endArrow%3Dclassic%3BstartArrow%3Dnone%3BendFill%3D1%3BstartFill%3D0%3BendSize%3D8%3Bhtml%3D1%3BverticalAlign%3Dbottom%3BlabelBackgroundColor%3Dnone%3BstrokeWidth%3D1%3Brounded%3D0%3BexitX%3D-0.1%3BexitY%3D-0.005%3BexitDx%3D0%3BexitDy%3D0%3BexitPerimeter%3D0%3B%22%20edge%3D%221%22%20parent%3D%221%22%3E%3CmxGeometry%20width%3D%22160%22%20relative%3D%221%22%20as%3D%22geometry%22%3E%3CmxPoint%20x%3D%22300%22%20y%3D%22420%22%20as%3D%22sourcePoint%22%2F%3E%3CmxPoint%20x%3D%22645%22%20y%3D%22420%22%20as%3D%22targetPoint%22%2F%3E%3C%2FmxGeometry%3E%3C%2FmxCell%3E%3CmxCell%20id%3D%226%22%20value%3D%22%26lt%3Bspan%20style%3D%26quot%3Bcolor%3A%20rgb(0%2C%200%2C%200)%3B%20font-family%3A%20Helvetica%3B%20font-size%3A%2011px%3B%20font-style%3A%20normal%3B%20font-variant-ligatures%3A%20normal%3B%20font-variant-caps%3A%20normal%3B%20font-weight%3A%20400%3B%20letter-spacing%3A%20normal%3B%20orphans%3A%202%3B%20text-align%3A%20center%3B%20text-indent%3A%200px%3B%20text-transform%3A%20none%3B%20widows%3A%202%3B%20word-spacing%3A%200px%3B%20-webkit-text-stroke-width%3A%200px%3B%20white-space%3A%20nowrap%3B%20background-color%3A%20rgb(251%2C%20251%2C%20251)%3B%20text-decoration-thickness%3A%20initial%3B%20text-decoration-style%3A%20initial%3B%20text-decoration-color%3A%20initial%3B%20display%3A%20inline%20!important%3B%20float%3A%20none%3B%26quot%3B%26gt%3B3.%20Datos%20verificados%26lt%3B%2Fspan%26gt%3B%22%20style%3D%22text%3BwhiteSpace%3Dwrap%3Bhtml%3D1%3B%22%20vertex%3D%221%22%20parent%3D%221%22%3E%3CmxGeometry%20x%3D%22345%22%20y%3D%22450%22%20width%3D%22130%22%20height%3D%2240%22%20as%3D%22geometry%22%2F%3E%3C%2FmxCell%3E%3CmxCell%20id%3D%227%22%20style%3D%22edgeStyle%3DorthogonalEdgeStyle%3Brounded%3D0%3BorthogonalLoop%3D1%3BjettySize%3Dauto%3Bhtml%3D1%3Bcurved%3D0%3Bdashed%3D1%3B%22%20edge%3D%221%22%20parent%3D%221%22%3E%3CmxGeometry%20relative%3D%221%22%20as%3D%22geometry%22%3E%3CmxPoint%20x%3D%22295%22%20y%3D%22481%22%20as%3D%22targetPoint%22%2F%3E%3CArray%20as%3D%22points%22%3E%3CmxPoint%20x%3D%22645%22%20y%3D%22481%22%2F%3E%3C%2FArray%3E%3CmxPoint%20x%3D%22645%22%20y%3D%22480%22%20as%3D%22sourcePoint%22%2F%3E%3C%2FmxGeometry%3E%3C%2FmxCell%3E%3CmxCell%20id%3D%228%22%20style%3D%22edgeStyle%3DorthogonalEdgeStyle%3Brounded%3D0%3BorthogonalLoop%3D1%3BjettySize%3Dauto%3Bhtml%3D1%3Bcurved%3D0%3Bdashed%3D1%3B%22%20edge%3D%221%22%20parent%3D%221%22%3E%3CmxGeometry%20relative%3D%221%22%20as%3D%22geometry%22%3E%3CmxPoint%20x%3D%22140%22%20y%3D%22491%22%20as%3D%22targetPoint%22%2F%3E%3CArray%20as%3D%22points%22%3E%3CmxPoint%20x%3D%22280%22%20y%3D%22490%22%2F%3E%3C%2FArray%3E%3CmxPoint%20x%3D%22285%22%20y%3D%22490%22%20as%3D%22sourcePoint%22%2F%3E%3C%2FmxGeometry%3E%3C%2FmxCell%3E%3CmxCell%20id%3D%229%22%20value%3D%22%26lt%3Bspan%20style%3D%26quot%3Bcolor%3A%20rgb(0%2C%200%2C%200)%3B%20font-family%3A%20Helvetica%3B%20font-size%3A%2011px%3B%20font-style%3A%20normal%3B%20font-variant-ligatures%3A%20normal%3B%20font-variant-caps%3A%20normal%3B%20font-weight%3A%20400%3B%20letter-spacing%3A%20normal%3B%20orphans%3A%202%3B%20text-align%3A%20center%3B%20text-indent%3A%200px%3B%20text-transform%3A%20none%3B%20widows%3A%202%3B%20word-spacing%3A%200px%3B%20-webkit-text-stroke-width%3A%200px%3B%20white-space%3A%20nowrap%3B%20background-color%3A%20rgb(251%2C%20251%2C%20251)%3B%20text-decoration-thickness%3A%20initial%3B%20text-decoration-style%3A%20initial%3B%20text-decoration-color%3A%20initial%3B%20display%3A%20inline%20!important%3B%20float%3A%20none%3B%26quot%3B%26gt%3B4.autorizacion%26lt%3B%2Fspan%26gt%3B%22%20style%3D%22text%3BwhiteSpace%3Dwrap%3Bhtml%3D1%3B%22%20vertex%3D%221%22%20parent%3D%221%22%3E%3CmxGeometry%20x%3D%22160%22%20y%3D%22460%22%20width%3D%22110%22%20height%3D%2240%22%20as%3D%22geometry%22%2F%3E%3C%2FmxCell%3E%3C%2Froot%3E%3C%2FmxGraphModel%3E&lt;/span&gt;" style="text;html=1;align=center;verticalAlign=middle;resizable=0;points=[];autosize=1;strokeColor=none;fillColor=none;" parent="1" vertex="1">
                    <mxGeometry x="200" y="368" width="20" height="30" as="geometry"/>
                </mxCell>
                <mxCell id="HtbTtlTuZfal81hQmDuH-10" value="&lt;span style=&quot;color: rgb(0, 0, 0); font-family: Helvetica; font-size: 11px; font-style: normal; font-variant-ligatures: normal; font-variant-caps: normal; font-weight: 400; letter-spacing: normal; orphans: 2; text-align: center; text-indent: 0px; text-transform: none; widows: 2; word-spacing: 0px; -webkit-text-stroke-width: 0px; white-space: nowrap; background-color: rgb(251, 251, 251); text-decoration-thickness: initial; text-decoration-style: initial; text-decoration-color: initial; display: inline !important; float: none;&quot;&gt;1. autentifiacion&lt;/span&gt;" style="text;whiteSpace=wrap;html=1;" parent="1" vertex="1">
                    <mxGeometry x="160" y="360" width="110" height="40" as="geometry"/>
                </mxCell>
                <mxCell id="HtbTtlTuZfal81hQmDuH-11" value="" style="endArrow=classic;startArrow=none;endFill=1;startFill=0;endSize=8;html=1;verticalAlign=bottom;labelBackgroundColor=none;strokeWidth=1;rounded=0;exitX=1.083;exitY=0.028;exitDx=0;exitDy=0;exitPerimeter=0;" parent="1" source="Kt_WH-T3Q5SyRcR1PZPV-10" edge="1">
                    <mxGeometry width="160" relative="1" as="geometry">
                        <mxPoint x="150" y="390" as="sourcePoint"/>
                        <mxPoint x="286" y="390" as="targetPoint"/>
                    </mxGeometry>
                </mxCell>
                <mxCell id="HtbTtlTuZfal81hQmDuH-12" value="&lt;span style=&quot;color: rgb(0, 0, 0); font-family: Helvetica; font-size: 11px; font-style: normal; font-variant-ligatures: normal; font-variant-caps: normal; font-weight: 400; letter-spacing: normal; orphans: 2; text-align: center; text-indent: 0px; text-transform: none; widows: 2; word-spacing: 0px; -webkit-text-stroke-width: 0px; white-space: nowrap; background-color: rgb(251, 251, 251); text-decoration-thickness: initial; text-decoration-style: initial; text-decoration-color: initial; display: inline !important; float: none;&quot;&gt;2. verificacion de datos&lt;/span&gt;" style="text;whiteSpace=wrap;html=1;" parent="1" vertex="1">
                    <mxGeometry x="330" y="370" width="110" height="40" as="geometry"/>
                </mxCell>
                <mxCell id="HtbTtlTuZfal81hQmDuH-13" value="" style="endArrow=classic;startArrow=none;endFill=1;startFill=0;endSize=8;html=1;verticalAlign=bottom;labelBackgroundColor=none;strokeWidth=1;rounded=0;exitX=-0.1;exitY=-0.005;exitDx=0;exitDy=0;exitPerimeter=0;" parent="1" edge="1">
                    <mxGeometry width="160" relative="1" as="geometry">
                        <mxPoint x="300" y="400" as="sourcePoint"/>
                        <mxPoint x="645" y="400" as="targetPoint"/>
                    </mxGeometry>
                </mxCell>
                <mxCell id="HtbTtlTuZfal81hQmDuH-14" value="&lt;span style=&quot;color: rgb(0, 0, 0); font-family: Helvetica; font-size: 11px; font-style: normal; font-variant-ligatures: normal; font-variant-caps: normal; font-weight: 400; letter-spacing: normal; orphans: 2; text-align: center; text-indent: 0px; text-transform: none; widows: 2; word-spacing: 0px; -webkit-text-stroke-width: 0px; white-space: nowrap; background-color: rgb(251, 251, 251); text-decoration-thickness: initial; text-decoration-style: initial; text-decoration-color: initial; display: inline !important; float: none;&quot;&gt;3. Datos verificados&lt;/span&gt;" style="text;whiteSpace=wrap;html=1;" parent="1" vertex="1">
                    <mxGeometry x="345" y="430" width="130" height="40" as="geometry"/>
                </mxCell>
                <mxCell id="HtbTtlTuZfal81hQmDuH-15" style="edgeStyle=orthogonalEdgeStyle;rounded=0;orthogonalLoop=1;jettySize=auto;html=1;curved=0;dashed=1;" parent="1" edge="1">
                    <mxGeometry relative="1" as="geometry">
                        <mxPoint x="295" y="461" as="targetPoint"/>
                        <Array as="points">
                            <mxPoint x="645" y="461"/>
                        </Array>
                        <mxPoint x="645" y="460" as="sourcePoint"/>
                    </mxGeometry>
                </mxCell>
                <mxCell id="HtbTtlTuZfal81hQmDuH-16" style="edgeStyle=orthogonalEdgeStyle;rounded=0;orthogonalLoop=1;jettySize=auto;html=1;curved=0;dashed=1;" parent="1" edge="1">
                    <mxGeometry relative="1" as="geometry">
                        <mxPoint x="140" y="471" as="targetPoint"/>
                        <Array as="points">
                            <mxPoint x="280" y="470"/>
                        </Array>
                        <mxPoint x="285" y="470" as="sourcePoint"/>
                    </mxGeometry>
                </mxCell>
                <mxCell id="HtbTtlTuZfal81hQmDuH-17" value="&lt;span style=&quot;color: rgb(0, 0, 0); font-family: Helvetica; font-size: 11px; font-style: normal; font-variant-ligatures: normal; font-variant-caps: normal; font-weight: 400; letter-spacing: normal; orphans: 2; text-align: center; text-indent: 0px; text-transform: none; widows: 2; word-spacing: 0px; -webkit-text-stroke-width: 0px; white-space: nowrap; background-color: rgb(251, 251, 251); text-decoration-thickness: initial; text-decoration-style: initial; text-decoration-color: initial; display: inline !important; float: none;&quot;&gt;4.autorizacion&lt;/span&gt;" style="text;whiteSpace=wrap;html=1;" parent="1" vertex="1">
                    <mxGeometry x="160" y="440" width="110" height="40" as="geometry"/>
                </mxCell>
            </root>
        </mxGraphModel>
    </diagram>
    <diagram id="qp2uKgty-9ENgBcS9ytR" name="PÃ¡gina-4">
        <mxGraphModel dx="1386" dy="787" grid="1" gridSize="10" guides="1" tooltips="1" connect="1" arrows="1" fold="1" page="1" pageScale="1" pageWidth="827" pageHeight="1169" math="0" shadow="0">
            <root>
                <mxCell id="0"/>
                <mxCell id="1" parent="0"/>
                <mxCell id="OoWjwZLpjr-k-JMhyF7n-1" value="Administrador" style="shape=umlActor;verticalLabelPosition=bottom;verticalAlign=top;html=1;" parent="1" vertex="1">
                    <mxGeometry x="120" y="260" width="30" height="60" as="geometry"/>
                </mxCell>
                <mxCell id="OoWjwZLpjr-k-JMhyF7n-2" value="" style="endArrow=none;startArrow=none;endFill=0;startFill=0;endSize=8;html=1;verticalAlign=bottom;dashed=1;labelBackgroundColor=none;rounded=0;" parent="1" edge="1">
                    <mxGeometry width="160" relative="1" as="geometry">
                        <mxPoint x="135" y="340" as="sourcePoint"/>
                        <mxPoint x="135" y="730" as="targetPoint"/>
                    </mxGeometry>
                </mxCell>
                <mxCell id="OoWjwZLpjr-k-JMhyF7n-3" value="Vista" style="shape=umlLifeline;perimeter=lifelinePerimeter;whiteSpace=wrap;html=1;container=1;dropTarget=0;collapsible=0;recursiveResize=0;outlineConnect=0;portConstraint=eastwest;newEdgeStyle={&quot;edgeStyle&quot;:&quot;elbowEdgeStyle&quot;,&quot;elbow&quot;:&quot;vertical&quot;,&quot;curved&quot;:0,&quot;rounded&quot;:0};" parent="1" vertex="1">
                    <mxGeometry x="240" y="290" width="100" height="430" as="geometry"/>
                </mxCell>
                <mxCell id="OoWjwZLpjr-k-JMhyF7n-4" value="" style="html=1;points=[[0,0,0,0,5],[0,1,0,0,-5],[1,0,0,0,5],[1,1,0,0,-5]];perimeter=orthogonalPerimeter;outlineConnect=0;targetShapes=umlLifeline;portConstraint=eastwest;newEdgeStyle={&quot;curved&quot;:0,&quot;rounded&quot;:0};fillColor=#808080;" parent="OoWjwZLpjr-k-JMhyF7n-3" vertex="1">
                    <mxGeometry x="43" y="110" width="10" height="300" as="geometry"/>
                </mxCell>
                <mxCell id="OoWjwZLpjr-k-JMhyF7n-5" value="Controlador" style="shape=umlLifeline;perimeter=lifelinePerimeter;whiteSpace=wrap;html=1;container=1;dropTarget=0;collapsible=0;recursiveResize=0;outlineConnect=0;portConstraint=eastwest;newEdgeStyle={&quot;edgeStyle&quot;:&quot;elbowEdgeStyle&quot;,&quot;elbow&quot;:&quot;vertical&quot;,&quot;curved&quot;:0,&quot;rounded&quot;:0};" parent="1" vertex="1">
                    <mxGeometry x="420" y="290" width="100" height="430" as="geometry"/>
                </mxCell>
                <mxCell id="OoWjwZLpjr-k-JMhyF7n-6" value="" style="html=1;points=[[0,0,0,0,5],[0,1,0,0,-5],[1,0,0,0,5],[1,1,0,0,-5]];perimeter=orthogonalPerimeter;outlineConnect=0;targetShapes=umlLifeline;portConstraint=eastwest;newEdgeStyle={&quot;curved&quot;:0,&quot;rounded&quot;:0};fillColor=#808080;" parent="OoWjwZLpjr-k-JMhyF7n-5" vertex="1">
                    <mxGeometry x="43" y="290" width="10" height="100" as="geometry"/>
                </mxCell>
                <mxCell id="OoWjwZLpjr-k-JMhyF7n-7" value="Modelo" style="shape=umlLifeline;perimeter=lifelinePerimeter;whiteSpace=wrap;html=1;container=1;dropTarget=0;collapsible=0;recursiveResize=0;outlineConnect=0;portConstraint=eastwest;newEdgeStyle={&quot;edgeStyle&quot;:&quot;elbowEdgeStyle&quot;,&quot;elbow&quot;:&quot;vertical&quot;,&quot;curved&quot;:0,&quot;rounded&quot;:0};" parent="1" vertex="1">
                    <mxGeometry x="600" y="290" width="100" height="430" as="geometry"/>
                </mxCell>
                <mxCell id="OoWjwZLpjr-k-JMhyF7n-8" value="" style="html=1;points=[[0,0,0,0,5],[0,1,0,0,-5],[1,0,0,0,5],[1,1,0,0,-5]];perimeter=orthogonalPerimeter;outlineConnect=0;targetShapes=umlLifeline;portConstraint=eastwest;newEdgeStyle={&quot;curved&quot;:0,&quot;rounded&quot;:0};fillColor=#808080;" parent="OoWjwZLpjr-k-JMhyF7n-7" vertex="1">
                    <mxGeometry x="43" y="120" width="10" height="240" as="geometry"/>
                </mxCell>
                <mxCell id="OoWjwZLpjr-k-JMhyF7n-9" value="" style="endArrow=classic;startArrow=none;endFill=1;startFill=0;endSize=8;html=1;verticalAlign=bottom;labelBackgroundColor=none;strokeWidth=1;rounded=0;exitX=1.186;exitY=0.516;exitDx=0;exitDy=0;exitPerimeter=0;" parent="1" source="OoWjwZLpjr-k-JMhyF7n-10" target="OoWjwZLpjr-k-JMhyF7n-4" edge="1">
                    <mxGeometry width="160" relative="1" as="geometry">
                        <mxPoint x="138" y="560" as="sourcePoint"/>
                        <mxPoint x="308" y="630" as="targetPoint"/>
                    </mxGeometry>
                </mxCell>
                <mxCell id="OoWjwZLpjr-k-JMhyF7n-10" value="" style="html=1;points=[];perimeter=orthogonalPerimeter;fillColor=strokeColor;strokeColor=#757575;" parent="1" vertex="1">
                    <mxGeometry x="128" y="400" width="10" height="310" as="geometry"/>
                </mxCell>
                <mxCell id="OoWjwZLpjr-k-JMhyF7n-11" value="5.&amp;nbsp; Ingresar datos de registro de usuario" style="text;html=1;align=center;verticalAlign=middle;whiteSpace=wrap;rounded=0;" parent="1" vertex="1">
                    <mxGeometry x="148" y="530" width="122" height="30" as="geometry"/>
                </mxCell>
                <mxCell id="OoWjwZLpjr-k-JMhyF7n-12" style="edgeStyle=orthogonalEdgeStyle;rounded=0;orthogonalLoop=1;jettySize=auto;html=1;curved=0;" parent="1" source="OoWjwZLpjr-k-JMhyF7n-4" edge="1">
                    <mxGeometry relative="1" as="geometry">
                        <Array as="points">
                            <mxPoint x="378" y="580"/>
                            <mxPoint x="378" y="580"/>
                        </Array>
                        <mxPoint x="467.5" y="580" as="targetPoint"/>
                    </mxGeometry>
                </mxCell>
                <mxCell id="OoWjwZLpjr-k-JMhyF7n-13" value="6. Enviar solicitud al controlador" style="text;html=1;align=center;verticalAlign=middle;whiteSpace=wrap;rounded=0;" parent="1" vertex="1">
                    <mxGeometry x="318" y="540" width="110" height="30" as="geometry"/>
                </mxCell>
                <mxCell id="OoWjwZLpjr-k-JMhyF7n-14" style="edgeStyle=orthogonalEdgeStyle;rounded=0;orthogonalLoop=1;jettySize=auto;html=1;curved=0;" parent="1" source="OoWjwZLpjr-k-JMhyF7n-6" target="OoWjwZLpjr-k-JMhyF7n-8" edge="1">
                    <mxGeometry relative="1" as="geometry">
                        <Array as="points">
                            <mxPoint x="558" y="600"/>
                            <mxPoint x="558" y="600"/>
                        </Array>
                    </mxGeometry>
                </mxCell>
                <mxCell id="OoWjwZLpjr-k-JMhyF7n-15" style="edgeStyle=orthogonalEdgeStyle;rounded=0;orthogonalLoop=1;jettySize=auto;html=1;curved=0;dashed=1;" parent="1" source="OoWjwZLpjr-k-JMhyF7n-8" target="OoWjwZLpjr-k-JMhyF7n-6" edge="1">
                    <mxGeometry relative="1" as="geometry">
                        <mxPoint x="478" y="650" as="targetPoint"/>
                        <Array as="points">
                            <mxPoint x="558" y="650"/>
                            <mxPoint x="558" y="650"/>
                        </Array>
                    </mxGeometry>
                </mxCell>
                <mxCell id="OoWjwZLpjr-k-JMhyF7n-16" value="7. Registrar nuevo usuario en la base de datos" style="text;html=1;align=center;verticalAlign=middle;whiteSpace=wrap;rounded=0;" parent="1" vertex="1">
                    <mxGeometry x="490" y="560" width="148" height="30" as="geometry"/>
                </mxCell>
                <mxCell id="OoWjwZLpjr-k-JMhyF7n-17" value="8 Usuario registrado" style="text;html=1;align=center;verticalAlign=middle;whiteSpace=wrap;rounded=0;" parent="1" vertex="1">
                    <mxGeometry x="498" y="620" width="130" height="30" as="geometry"/>
                </mxCell>
                <mxCell id="OoWjwZLpjr-k-JMhyF7n-18" style="edgeStyle=orthogonalEdgeStyle;rounded=0;orthogonalLoop=1;jettySize=auto;html=1;curved=0;dashed=1;" parent="1" source="OoWjwZLpjr-k-JMhyF7n-6" target="OoWjwZLpjr-k-JMhyF7n-4" edge="1">
                    <mxGeometry relative="1" as="geometry">
                        <mxPoint x="288" y="680" as="targetPoint"/>
                        <Array as="points">
                            <mxPoint x="378" y="680"/>
                            <mxPoint x="378" y="680"/>
                        </Array>
                    </mxGeometry>
                </mxCell>
                <mxCell id="OoWjwZLpjr-k-JMhyF7n-19" value="9. Confirmar registro exitoso" style="text;html=1;align=center;verticalAlign=middle;whiteSpace=wrap;rounded=0;" parent="1" vertex="1">
                    <mxGeometry x="308" y="650" width="140" height="30" as="geometry"/>
                </mxCell>
                <mxCell id="OoWjwZLpjr-k-JMhyF7n-20" style="edgeStyle=orthogonalEdgeStyle;rounded=0;orthogonalLoop=1;jettySize=auto;html=1;curved=0;dashed=1;" parent="1" source="OoWjwZLpjr-k-JMhyF7n-4" edge="1">
                    <mxGeometry relative="1" as="geometry">
                        <mxPoint x="138" y="700" as="targetPoint"/>
                        <Array as="points">
                            <mxPoint x="138" y="700"/>
                        </Array>
                    </mxGeometry>
                </mxCell>
                <mxCell id="OoWjwZLpjr-k-JMhyF7n-21" value="10. Mostrar confirmaciÃ³n de registro" style="text;html=1;align=center;verticalAlign=middle;whiteSpace=wrap;rounded=0;" parent="1" vertex="1">
                    <mxGeometry x="138" y="670" width="140" height="30" as="geometry"/>
                </mxCell>
                <mxCell id="OoWjwZLpjr-k-JMhyF7n-22" value="Registrar usuario" style="shape=umlFrame;whiteSpace=wrap;html=1;pointerEvents=0;recursiveResize=0;container=1;collapsible=0;width=160;" parent="1" vertex="1">
                    <mxGeometry x="58" y="220" width="720" height="530" as="geometry"/>
                </mxCell>
                <mxCell id="q2hgBpKWUEjyyuwZlJn0-1" value="&lt;span style=&quot;color: rgb(0, 0, 0); font-family: Helvetica; font-size: 11px; font-style: normal; font-variant-ligatures: normal; font-variant-caps: normal; font-weight: 400; letter-spacing: normal; orphans: 2; text-align: center; text-indent: 0px; text-transform: none; widows: 2; word-spacing: 0px; -webkit-text-stroke-width: 0px; white-space: nowrap; background-color: rgb(251, 251, 251); text-decoration-thickness: initial; text-decoration-style: initial; text-decoration-color: initial; display: inline !important; float: none;&quot;&gt;1. autentifiacion&lt;/span&gt;" style="text;whiteSpace=wrap;html=1;" parent="1" vertex="1">
                    <mxGeometry x="168" y="370" width="110" height="40" as="geometry"/>
                </mxCell>
                <mxCell id="q2hgBpKWUEjyyuwZlJn0-2" value="" style="endArrow=classic;startArrow=none;endFill=1;startFill=0;endSize=8;html=1;verticalAlign=bottom;labelBackgroundColor=none;strokeWidth=1;rounded=0;exitX=-0.1;exitY=-0.005;exitDx=0;exitDy=0;exitPerimeter=0;" parent="1" edge="1">
                    <mxGeometry width="160" relative="1" as="geometry">
                        <mxPoint x="130" y="399.58" as="sourcePoint"/>
                        <mxPoint x="286" y="399.58" as="targetPoint"/>
                    </mxGeometry>
                </mxCell>
                <mxCell id="q2hgBpKWUEjyyuwZlJn0-3" value="&lt;span style=&quot;color: rgb(0, 0, 0); font-family: Helvetica; font-size: 11px; font-style: normal; font-variant-ligatures: normal; font-variant-caps: normal; font-weight: 400; letter-spacing: normal; orphans: 2; text-align: center; text-indent: 0px; text-transform: none; widows: 2; word-spacing: 0px; -webkit-text-stroke-width: 0px; white-space: nowrap; background-color: rgb(251, 251, 251); text-decoration-thickness: initial; text-decoration-style: initial; text-decoration-color: initial; display: inline !important; float: none;&quot;&gt;2. verificacion de datos&lt;/span&gt;" style="text;whiteSpace=wrap;html=1;" parent="1" vertex="1">
                    <mxGeometry x="338" y="380" width="110" height="40" as="geometry"/>
                </mxCell>
                <mxCell id="q2hgBpKWUEjyyuwZlJn0-4" value="" style="endArrow=classic;startArrow=none;endFill=1;startFill=0;endSize=8;html=1;verticalAlign=bottom;labelBackgroundColor=none;strokeWidth=1;rounded=0;exitX=-0.1;exitY=-0.005;exitDx=0;exitDy=0;exitPerimeter=0;" parent="1" edge="1">
                    <mxGeometry width="160" relative="1" as="geometry">
                        <mxPoint x="297.5" y="410" as="sourcePoint"/>
                        <mxPoint x="642.5" y="410" as="targetPoint"/>
                    </mxGeometry>
                </mxCell>
                <mxCell id="q2hgBpKWUEjyyuwZlJn0-5" value="&lt;span style=&quot;color: rgb(0, 0, 0); font-family: Helvetica; font-size: 11px; font-style: normal; font-variant-ligatures: normal; font-variant-caps: normal; font-weight: 400; letter-spacing: normal; orphans: 2; text-align: center; text-indent: 0px; text-transform: none; widows: 2; word-spacing: 0px; -webkit-text-stroke-width: 0px; white-space: nowrap; background-color: rgb(251, 251, 251); text-decoration-thickness: initial; text-decoration-style: initial; text-decoration-color: initial; display: inline !important; float: none;&quot;&gt;3. Datos verificados&lt;/span&gt;" style="text;whiteSpace=wrap;html=1;" parent="1" vertex="1">
                    <mxGeometry x="353" y="440" width="130" height="40" as="geometry"/>
                </mxCell>
                <mxCell id="q2hgBpKWUEjyyuwZlJn0-6" style="edgeStyle=orthogonalEdgeStyle;rounded=0;orthogonalLoop=1;jettySize=auto;html=1;curved=0;dashed=1;" parent="1" edge="1">
                    <mxGeometry relative="1" as="geometry">
                        <mxPoint x="295" y="470.5" as="targetPoint"/>
                        <Array as="points">
                            <mxPoint x="645" y="470.5"/>
                        </Array>
                        <mxPoint x="645" y="469.5" as="sourcePoint"/>
                    </mxGeometry>
                </mxCell>
                <mxCell id="q2hgBpKWUEjyyuwZlJn0-7" style="edgeStyle=orthogonalEdgeStyle;rounded=0;orthogonalLoop=1;jettySize=auto;html=1;curved=0;dashed=1;" parent="1" edge="1">
                    <mxGeometry relative="1" as="geometry">
                        <mxPoint x="138" y="481" as="targetPoint"/>
                        <Array as="points">
                            <mxPoint x="278" y="480"/>
                        </Array>
                        <mxPoint x="283" y="480" as="sourcePoint"/>
                    </mxGeometry>
                </mxCell>
                <mxCell id="q2hgBpKWUEjyyuwZlJn0-8" value="&lt;span style=&quot;color: rgb(0, 0, 0); font-family: Helvetica; font-size: 11px; font-style: normal; font-variant-ligatures: normal; font-variant-caps: normal; font-weight: 400; letter-spacing: normal; orphans: 2; text-align: center; text-indent: 0px; text-transform: none; widows: 2; word-spacing: 0px; -webkit-text-stroke-width: 0px; white-space: nowrap; background-color: rgb(251, 251, 251); text-decoration-thickness: initial; text-decoration-style: initial; text-decoration-color: initial; display: inline !important; float: none;&quot;&gt;4.autorizacion&lt;/span&gt;" style="text;whiteSpace=wrap;html=1;" parent="1" vertex="1">
                    <mxGeometry x="160" y="450" width="110" height="40" as="geometry"/>
                </mxCell>
            </root>
        </mxGraphModel>
    </diagram>
    <diagram id="XAPD0dWTeOR2qh6qA5Wa" name="PÃ¡gina-5">
        <mxGraphModel dx="1386" dy="787" grid="1" gridSize="10" guides="1" tooltips="1" connect="1" arrows="1" fold="1" page="1" pageScale="1" pageWidth="827" pageHeight="1169" math="0" shadow="0">
            <root>
                <mxCell id="0"/>
                <mxCell id="1" parent="0"/>
                <mxCell id="24Skx4S_4RCd5kjonTDP-1" value="Bibliotecario" style="shape=umlActor;verticalLabelPosition=bottom;verticalAlign=top;html=1;" parent="1" vertex="1">
                    <mxGeometry x="120" y="260" width="30" height="60" as="geometry"/>
                </mxCell>
                <mxCell id="24Skx4S_4RCd5kjonTDP-2" value="" style="endArrow=none;startArrow=none;endFill=0;startFill=0;endSize=8;html=1;verticalAlign=bottom;dashed=1;labelBackgroundColor=none;rounded=0;" parent="1" edge="1">
                    <mxGeometry width="160" relative="1" as="geometry">
                        <mxPoint x="135" y="340" as="sourcePoint"/>
                        <mxPoint x="130" y="750" as="targetPoint"/>
                    </mxGeometry>
                </mxCell>
                <mxCell id="24Skx4S_4RCd5kjonTDP-3" value="Vista" style="shape=umlLifeline;perimeter=lifelinePerimeter;whiteSpace=wrap;html=1;container=1;dropTarget=0;collapsible=0;recursiveResize=0;outlineConnect=0;portConstraint=eastwest;newEdgeStyle={&quot;edgeStyle&quot;:&quot;elbowEdgeStyle&quot;,&quot;elbow&quot;:&quot;vertical&quot;,&quot;curved&quot;:0,&quot;rounded&quot;:0};" parent="1" vertex="1">
                    <mxGeometry x="240" y="290" width="100" height="470" as="geometry"/>
                </mxCell>
                <mxCell id="24Skx4S_4RCd5kjonTDP-4" value="" style="html=1;points=[[0,0,0,0,5],[0,1,0,0,-5],[1,0,0,0,5],[1,1,0,0,-5]];perimeter=orthogonalPerimeter;outlineConnect=0;targetShapes=umlLifeline;portConstraint=eastwest;newEdgeStyle={&quot;curved&quot;:0,&quot;rounded&quot;:0};fillColor=#808080;" parent="24Skx4S_4RCd5kjonTDP-3" vertex="1">
                    <mxGeometry x="45" y="130" width="10" height="300" as="geometry"/>
                </mxCell>
                <mxCell id="24Skx4S_4RCd5kjonTDP-5" value="Controlador" style="shape=umlLifeline;perimeter=lifelinePerimeter;whiteSpace=wrap;html=1;container=1;dropTarget=0;collapsible=0;recursiveResize=0;outlineConnect=0;portConstraint=eastwest;newEdgeStyle={&quot;edgeStyle&quot;:&quot;elbowEdgeStyle&quot;,&quot;elbow&quot;:&quot;vertical&quot;,&quot;curved&quot;:0,&quot;rounded&quot;:0};" parent="1" vertex="1">
                    <mxGeometry x="420" y="290" width="100" height="470" as="geometry"/>
                </mxCell>
                <mxCell id="24Skx4S_4RCd5kjonTDP-6" value="" style="html=1;points=[[0,0,0,0,5],[0,1,0,0,-5],[1,0,0,0,5],[1,1,0,0,-5]];perimeter=orthogonalPerimeter;outlineConnect=0;targetShapes=umlLifeline;portConstraint=eastwest;newEdgeStyle={&quot;curved&quot;:0,&quot;rounded&quot;:0};fillColor=#808080;" parent="24Skx4S_4RCd5kjonTDP-5" vertex="1">
                    <mxGeometry x="45" y="310" width="10" height="100" as="geometry"/>
                </mxCell>
                <mxCell id="24Skx4S_4RCd5kjonTDP-7" value="Modelo" style="shape=umlLifeline;perimeter=lifelinePerimeter;whiteSpace=wrap;html=1;container=1;dropTarget=0;collapsible=0;recursiveResize=0;outlineConnect=0;portConstraint=eastwest;newEdgeStyle={&quot;edgeStyle&quot;:&quot;elbowEdgeStyle&quot;,&quot;elbow&quot;:&quot;vertical&quot;,&quot;curved&quot;:0,&quot;rounded&quot;:0};" parent="1" vertex="1">
                    <mxGeometry x="600" y="290" width="100" height="470" as="geometry"/>
                </mxCell>
                <mxCell id="24Skx4S_4RCd5kjonTDP-8" value="" style="html=1;points=[[0,0,0,0,5],[0,1,0,0,-5],[1,0,0,0,5],[1,1,0,0,-5]];perimeter=orthogonalPerimeter;outlineConnect=0;targetShapes=umlLifeline;portConstraint=eastwest;newEdgeStyle={&quot;curved&quot;:0,&quot;rounded&quot;:0};fillColor=#808080;" parent="24Skx4S_4RCd5kjonTDP-7" vertex="1">
                    <mxGeometry x="45" y="140" width="10" height="240" as="geometry"/>
                </mxCell>
                <mxCell id="24Skx4S_4RCd5kjonTDP-9" value="" style="endArrow=classic;startArrow=none;endFill=1;startFill=0;endSize=8;html=1;verticalAlign=bottom;labelBackgroundColor=none;strokeWidth=1;rounded=0;exitX=0.852;exitY=0.545;exitDx=0;exitDy=0;exitPerimeter=0;" parent="1" source="24Skx4S_4RCd5kjonTDP-10" target="24Skx4S_4RCd5kjonTDP-4" edge="1">
                    <mxGeometry width="160" relative="1" as="geometry">
                        <mxPoint x="140" y="580" as="sourcePoint"/>
                        <mxPoint x="310" y="650" as="targetPoint"/>
                    </mxGeometry>
                </mxCell>
                <mxCell id="24Skx4S_4RCd5kjonTDP-10" value="" style="html=1;points=[];perimeter=orthogonalPerimeter;fillColor=strokeColor;strokeColor=#757575;" parent="1" vertex="1">
                    <mxGeometry x="130" y="420" width="10" height="310" as="geometry"/>
                </mxCell>
                <mxCell id="24Skx4S_4RCd5kjonTDP-11" value="5. Solicitar generaciÃ³n de reporte" style="text;html=1;align=center;verticalAlign=middle;whiteSpace=wrap;rounded=0;" parent="1" vertex="1">
                    <mxGeometry x="150" y="550" width="120" height="30" as="geometry"/>
                </mxCell>
                <mxCell id="24Skx4S_4RCd5kjonTDP-12" style="edgeStyle=orthogonalEdgeStyle;rounded=0;orthogonalLoop=1;jettySize=auto;html=1;curved=0;" parent="1" source="24Skx4S_4RCd5kjonTDP-4" edge="1">
                    <mxGeometry relative="1" as="geometry">
                        <Array as="points">
                            <mxPoint x="380" y="600"/>
                            <mxPoint x="380" y="600"/>
                        </Array>
                        <mxPoint x="469.5" y="600" as="targetPoint"/>
                    </mxGeometry>
                </mxCell>
                <mxCell id="24Skx4S_4RCd5kjonTDP-13" value="6. Enviar solicitud de reporte" style="text;html=1;align=center;verticalAlign=middle;whiteSpace=wrap;rounded=0;" parent="1" vertex="1">
                    <mxGeometry x="320" y="560" width="110" height="30" as="geometry"/>
                </mxCell>
                <mxCell id="24Skx4S_4RCd5kjonTDP-14" style="edgeStyle=orthogonalEdgeStyle;rounded=0;orthogonalLoop=1;jettySize=auto;html=1;curved=0;" parent="1" source="24Skx4S_4RCd5kjonTDP-6" target="24Skx4S_4RCd5kjonTDP-8" edge="1">
                    <mxGeometry relative="1" as="geometry">
                        <Array as="points">
                            <mxPoint x="560" y="620"/>
                            <mxPoint x="560" y="620"/>
                        </Array>
                    </mxGeometry>
                </mxCell>
                <mxCell id="24Skx4S_4RCd5kjonTDP-15" style="edgeStyle=orthogonalEdgeStyle;rounded=0;orthogonalLoop=1;jettySize=auto;html=1;curved=0;dashed=1;" parent="1" source="24Skx4S_4RCd5kjonTDP-8" target="24Skx4S_4RCd5kjonTDP-6" edge="1">
                    <mxGeometry relative="1" as="geometry">
                        <mxPoint x="480" y="670" as="targetPoint"/>
                        <Array as="points">
                            <mxPoint x="560" y="670"/>
                            <mxPoint x="560" y="670"/>
                        </Array>
                    </mxGeometry>
                </mxCell>
                <mxCell id="24Skx4S_4RCd5kjonTDP-16" value="7. Obtener datos para el reporte" style="text;html=1;align=center;verticalAlign=middle;whiteSpace=wrap;rounded=0;" parent="1" vertex="1">
                    <mxGeometry x="500" y="580" width="140" height="30" as="geometry"/>
                </mxCell>
                <mxCell id="24Skx4S_4RCd5kjonTDP-17" value="8. Datos de reporte" style="text;html=1;align=center;verticalAlign=middle;whiteSpace=wrap;rounded=0;" parent="1" vertex="1">
                    <mxGeometry x="500" y="640" width="130" height="30" as="geometry"/>
                </mxCell>
                <mxCell id="24Skx4S_4RCd5kjonTDP-18" style="edgeStyle=orthogonalEdgeStyle;rounded=0;orthogonalLoop=1;jettySize=auto;html=1;curved=0;dashed=1;" parent="1" source="24Skx4S_4RCd5kjonTDP-6" target="24Skx4S_4RCd5kjonTDP-4" edge="1">
                    <mxGeometry relative="1" as="geometry">
                        <mxPoint x="290" y="700" as="targetPoint"/>
                        <Array as="points">
                            <mxPoint x="380" y="700"/>
                            <mxPoint x="380" y="700"/>
                        </Array>
                    </mxGeometry>
                </mxCell>
                <mxCell id="24Skx4S_4RCd5kjonTDP-19" value="9. Mostrar reporte" style="text;html=1;align=center;verticalAlign=middle;whiteSpace=wrap;rounded=0;" parent="1" vertex="1">
                    <mxGeometry x="310" y="670" width="140" height="30" as="geometry"/>
                </mxCell>
                <mxCell id="24Skx4S_4RCd5kjonTDP-20" style="edgeStyle=orthogonalEdgeStyle;rounded=0;orthogonalLoop=1;jettySize=auto;html=1;curved=0;dashed=1;" parent="1" source="24Skx4S_4RCd5kjonTDP-4" edge="1">
                    <mxGeometry relative="1" as="geometry">
                        <mxPoint x="140" y="720" as="targetPoint"/>
                        <Array as="points">
                            <mxPoint x="140" y="720"/>
                        </Array>
                    </mxGeometry>
                </mxCell>
                <mxCell id="24Skx4S_4RCd5kjonTDP-21" value="10. Descargar o visualizar reporte" style="text;html=1;align=center;verticalAlign=middle;whiteSpace=wrap;rounded=0;" parent="1" vertex="1">
                    <mxGeometry x="140" y="690" width="140" height="30" as="geometry"/>
                </mxCell>
                <mxCell id="24Skx4S_4RCd5kjonTDP-22" value="Generar Reporte" style="shape=umlFrame;whiteSpace=wrap;html=1;pointerEvents=0;recursiveResize=0;container=1;collapsible=0;width=160;" parent="1" vertex="1">
                    <mxGeometry x="40" y="210" width="720" height="600" as="geometry"/>
                </mxCell>
                <mxCell id="rNY5srGtTuXT8plp4D8B-1" value="&lt;span style=&quot;color: rgb(0, 0, 0); font-family: Helvetica; font-size: 11px; font-style: normal; font-variant-ligatures: normal; font-variant-caps: normal; font-weight: 400; letter-spacing: normal; orphans: 2; text-align: center; text-indent: 0px; text-transform: none; widows: 2; word-spacing: 0px; -webkit-text-stroke-width: 0px; white-space: nowrap; background-color: rgb(251, 251, 251); text-decoration-thickness: initial; text-decoration-style: initial; text-decoration-color: initial; display: inline !important; float: none;&quot;&gt;1. autentifiacion&lt;/span&gt;" style="text;whiteSpace=wrap;html=1;" parent="1" vertex="1">
                    <mxGeometry x="160" y="390" width="110" height="40" as="geometry"/>
                </mxCell>
                <mxCell id="rNY5srGtTuXT8plp4D8B-2" value="" style="endArrow=classic;startArrow=none;endFill=1;startFill=0;endSize=8;html=1;verticalAlign=bottom;labelBackgroundColor=none;strokeWidth=1;rounded=0;exitX=-0.1;exitY=-0.005;exitDx=0;exitDy=0;exitPerimeter=0;" parent="1" edge="1">
                    <mxGeometry width="160" relative="1" as="geometry">
                        <mxPoint x="130" y="420" as="sourcePoint"/>
                        <mxPoint x="286" y="420" as="targetPoint"/>
                    </mxGeometry>
                </mxCell>
                <mxCell id="rNY5srGtTuXT8plp4D8B-3" value="&lt;span style=&quot;color: rgb(0, 0, 0); font-family: Helvetica; font-size: 11px; font-style: normal; font-variant-ligatures: normal; font-variant-caps: normal; font-weight: 400; letter-spacing: normal; orphans: 2; text-align: center; text-indent: 0px; text-transform: none; widows: 2; word-spacing: 0px; -webkit-text-stroke-width: 0px; white-space: nowrap; background-color: rgb(251, 251, 251); text-decoration-thickness: initial; text-decoration-style: initial; text-decoration-color: initial; display: inline !important; float: none;&quot;&gt;2. verificacion de datos&lt;/span&gt;" style="text;whiteSpace=wrap;html=1;" parent="1" vertex="1">
                    <mxGeometry x="330" y="400" width="110" height="40" as="geometry"/>
                </mxCell>
                <mxCell id="rNY5srGtTuXT8plp4D8B-4" value="" style="endArrow=classic;startArrow=none;endFill=1;startFill=0;endSize=8;html=1;verticalAlign=bottom;labelBackgroundColor=none;strokeWidth=1;rounded=0;exitX=-0.1;exitY=-0.005;exitDx=0;exitDy=0;exitPerimeter=0;" parent="1" edge="1">
                    <mxGeometry width="160" relative="1" as="geometry">
                        <mxPoint x="300" y="430" as="sourcePoint"/>
                        <mxPoint x="645" y="430" as="targetPoint"/>
                    </mxGeometry>
                </mxCell>
                <mxCell id="rNY5srGtTuXT8plp4D8B-5" value="&lt;span style=&quot;color: rgb(0, 0, 0); font-family: Helvetica; font-size: 11px; font-style: normal; font-variant-ligatures: normal; font-variant-caps: normal; font-weight: 400; letter-spacing: normal; orphans: 2; text-align: center; text-indent: 0px; text-transform: none; widows: 2; word-spacing: 0px; -webkit-text-stroke-width: 0px; white-space: nowrap; background-color: rgb(251, 251, 251); text-decoration-thickness: initial; text-decoration-style: initial; text-decoration-color: initial; display: inline !important; float: none;&quot;&gt;3. Datos verificados&lt;/span&gt;" style="text;whiteSpace=wrap;html=1;" parent="1" vertex="1">
                    <mxGeometry x="345" y="460" width="130" height="40" as="geometry"/>
                </mxCell>
                <mxCell id="rNY5srGtTuXT8plp4D8B-6" style="edgeStyle=orthogonalEdgeStyle;rounded=0;orthogonalLoop=1;jettySize=auto;html=1;curved=0;dashed=1;" parent="1" edge="1">
                    <mxGeometry relative="1" as="geometry">
                        <mxPoint x="295" y="491" as="targetPoint"/>
                        <Array as="points">
                            <mxPoint x="645" y="491"/>
                        </Array>
                        <mxPoint x="645" y="490" as="sourcePoint"/>
                    </mxGeometry>
                </mxCell>
                <mxCell id="rNY5srGtTuXT8plp4D8B-7" style="edgeStyle=orthogonalEdgeStyle;rounded=0;orthogonalLoop=1;jettySize=auto;html=1;curved=0;dashed=1;" parent="1" edge="1">
                    <mxGeometry relative="1" as="geometry">
                        <mxPoint x="140" y="501" as="targetPoint"/>
                        <Array as="points">
                            <mxPoint x="280" y="500"/>
                        </Array>
                        <mxPoint x="285" y="500" as="sourcePoint"/>
                    </mxGeometry>
                </mxCell>
                <mxCell id="rNY5srGtTuXT8plp4D8B-8" value="&lt;span style=&quot;color: rgb(0, 0, 0); font-family: Helvetica; font-size: 11px; font-style: normal; font-variant-ligatures: normal; font-variant-caps: normal; font-weight: 400; letter-spacing: normal; orphans: 2; text-align: center; text-indent: 0px; text-transform: none; widows: 2; word-spacing: 0px; -webkit-text-stroke-width: 0px; white-space: nowrap; background-color: rgb(251, 251, 251); text-decoration-thickness: initial; text-decoration-style: initial; text-decoration-color: initial; display: inline !important; float: none;&quot;&gt;4.autorizacion&lt;/span&gt;" style="text;whiteSpace=wrap;html=1;" parent="1" vertex="1">
                    <mxGeometry x="160" y="470" width="110" height="40" as="geometry"/>
                </mxCell>
            </root>
        </mxGraphModel>
    </diagram>
    <diagram id="8pYQAm7FETHp2NolAxD2" name="PÃ¡gina-6">
        <mxGraphModel dx="2213" dy="787" grid="1" gridSize="10" guides="1" tooltips="1" connect="1" arrows="1" fold="1" page="1" pageScale="1" pageWidth="827" pageHeight="1169" math="0" shadow="0">
            <root>
                <mxCell id="0"/>
                <mxCell id="1" parent="0"/>
                <mxCell id="CSdOMJZsFnO5DeOv6PW6-1" value="Reservar libro" style="shape=umlFrame;whiteSpace=wrap;html=1;pointerEvents=0;recursiveResize=0;container=1;collapsible=0;width=160;" parent="1" vertex="1">
                    <mxGeometry x="-130" y="10" width="800" height="800" as="geometry"/>
                </mxCell>
                <mxCell id="CSdOMJZsFnO5DeOv6PW6-2" value="libro" style="shape=umlLifeline;perimeter=lifelinePerimeter;whiteSpace=wrap;html=1;container=1;dropTarget=0;collapsible=0;recursiveResize=0;outlineConnect=0;portConstraint=eastwest;newEdgeStyle={&quot;edgeStyle&quot;:&quot;elbowEdgeStyle&quot;,&quot;elbow&quot;:&quot;vertical&quot;,&quot;curved&quot;:0,&quot;rounded&quot;:0};" parent="CSdOMJZsFnO5DeOv6PW6-1" vertex="1">
                    <mxGeometry x="457.5" y="50" width="100" height="730" as="geometry"/>
                </mxCell>
                <mxCell id="CSdOMJZsFnO5DeOv6PW6-3" value="Usuario" style="shape=umlLifeline;perimeter=lifelinePerimeter;whiteSpace=wrap;html=1;container=1;dropTarget=0;collapsible=0;recursiveResize=0;outlineConnect=0;portConstraint=eastwest;newEdgeStyle={&quot;edgeStyle&quot;:&quot;elbowEdgeStyle&quot;,&quot;elbow&quot;:&quot;vertical&quot;,&quot;curved&quot;:0,&quot;rounded&quot;:0};" parent="CSdOMJZsFnO5DeOv6PW6-1" vertex="1">
                    <mxGeometry x="200" y="50" width="100" height="720" as="geometry"/>
                </mxCell>
                <mxCell id="CSdOMJZsFnO5DeOv6PW6-4" value="vista" style="shape=umlLifeline;perimeter=lifelinePerimeter;whiteSpace=wrap;html=1;container=1;dropTarget=0;collapsible=0;recursiveResize=0;outlineConnect=0;portConstraint=eastwest;newEdgeStyle={&quot;edgeStyle&quot;:&quot;elbowEdgeStyle&quot;,&quot;elbow&quot;:&quot;vertical&quot;,&quot;curved&quot;:0,&quot;rounded&quot;:0};" parent="CSdOMJZsFnO5DeOv6PW6-1" vertex="1">
                    <mxGeometry x="327.5" y="50" width="100" height="730" as="geometry"/>
                </mxCell>
                <mxCell id="CSdOMJZsFnO5DeOv6PW6-5" value="modelo" style="shape=umlLifeline;perimeter=lifelinePerimeter;whiteSpace=wrap;html=1;container=1;dropTarget=0;collapsible=0;recursiveResize=0;outlineConnect=0;portConstraint=eastwest;newEdgeStyle={&quot;edgeStyle&quot;:&quot;elbowEdgeStyle&quot;,&quot;elbow&quot;:&quot;vertical&quot;,&quot;curved&quot;:0,&quot;rounded&quot;:0};" parent="CSdOMJZsFnO5DeOv6PW6-1" vertex="1">
                    <mxGeometry x="598" y="50" width="100" height="730" as="geometry"/>
                </mxCell>
                <mxCell id="CSdOMJZsFnO5DeOv6PW6-6" value="1. autentifiacion" style="endArrow=open;startArrow=none;endFill=0;startFill=0;endSize=8;html=1;verticalAlign=bottom;labelBackgroundColor=none;rounded=0;" parent="CSdOMJZsFnO5DeOv6PW6-1" source="CSdOMJZsFnO5DeOv6PW6-3" target="CSdOMJZsFnO5DeOv6PW6-4" edge="1">
                    <mxGeometry width="160" relative="1" as="geometry">
                        <mxPoint x="297.5" y="150" as="sourcePoint"/>
                        <mxPoint x="357.5" y="150" as="targetPoint"/>
                        <Array as="points">
                            <mxPoint x="327.5" y="140"/>
                        </Array>
                    </mxGeometry>
                </mxCell>
                <mxCell id="CSdOMJZsFnO5DeOv6PW6-7" value="4. autorizacion" style="endArrow=none;startArrow=open;endFill=0;startFill=0;endSize=8;html=1;verticalAlign=bottom;labelBackgroundColor=none;rounded=0;dashed=1;" parent="CSdOMJZsFnO5DeOv6PW6-1" source="CSdOMJZsFnO5DeOv6PW6-3" target="CSdOMJZsFnO5DeOv6PW6-4" edge="1">
                    <mxGeometry width="160" relative="1" as="geometry">
                        <mxPoint x="277.5" y="200" as="sourcePoint"/>
                        <mxPoint x="405.5" y="200" as="targetPoint"/>
                        <Array as="points">
                            <mxPoint x="355.5" y="200"/>
                        </Array>
                    </mxGeometry>
                </mxCell>
                <mxCell id="CSdOMJZsFnO5DeOv6PW6-8" value="5. Buscar libro" style="endArrow=open;startArrow=none;endFill=0;startFill=0;endSize=8;html=1;verticalAlign=bottom;labelBackgroundColor=none;rounded=0;" parent="CSdOMJZsFnO5DeOv6PW6-1" edge="1">
                    <mxGeometry width="160" relative="1" as="geometry">
                        <mxPoint x="380.5" y="249.5" as="sourcePoint"/>
                        <mxPoint x="508.5" y="250" as="targetPoint"/>
                        <Array as="points">
                            <mxPoint x="476.5" y="249.5"/>
                        </Array>
                    </mxGeometry>
                </mxCell>
                <mxCell id="CSdOMJZsFnO5DeOv6PW6-9" value="&lt;span style=&quot;color: rgba(0, 0, 0, 0); font-family: monospace; font-size: 0px; text-align: start;&quot;&gt;%3CmxGraphModel%3E%3Croot%3E%3CmxCell%20id%3D%220%22%2F%3E%3CmxCell%20id%3D%221%22%20parent%3D%220%22%2F%3E%3CmxCell%20id%3D%222%22%20value%3D%22Usuario%22%20style%3D%22shape%3DumlLifeline%3Bperimeter%3DlifelinePerimeter%3BwhiteSpace%3Dwrap%3Bhtml%3D1%3Bcontainer%3D1%3BdropTarget%3D0%3Bcollapsible%3D0%3BrecursiveResize%3D0%3BoutlineConnect%3D0%3BportConstraint%3Deastwest%3BnewEdgeStyle%3D%7B%26quot%3BedgeStyle%26quot%3B%3A%26quot%3BelbowEdgeStyle%26quot%3B%2C%26quot%3Belbow%26quot%3B%3A%26quot%3Bvertical%26quot%3B%2C%26quot%3Bcurved%26quot%3B%3A0%2C%26quot%3Brounded%26quot%3B%3A0%7D%3B%22%20vertex%3D%221%22%20parent%3D%221%22%3E%3CmxGeometry%20x%3D%2270%22%20y%3D%2260%22%20width%3D%22100%22%20height%3D%22420%22%20as%3D%22geometry%22%2F%3E%3C%2FmxCell%3E%3C%2Froot%3E%3C%2FmxGraphModel%3E&lt;/span&gt;" style="html=1;points=[];perimeter=orthogonalPerimeter;fillColor=strokeColor;" parent="CSdOMJZsFnO5DeOv6PW6-1" vertex="1">
                    <mxGeometry x="247.5" y="130" width="5" height="220" as="geometry"/>
                </mxCell>
                <mxCell id="CSdOMJZsFnO5DeOv6PW6-10" value="" style="html=1;points=[];perimeter=orthogonalPerimeter;fillColor=strokeColor;" parent="CSdOMJZsFnO5DeOv6PW6-1" vertex="1">
                    <mxGeometry x="375.5" y="130" width="5" height="280" as="geometry"/>
                </mxCell>
                <mxCell id="CSdOMJZsFnO5DeOv6PW6-11" value="" style="html=1;points=[];perimeter=orthogonalPerimeter;fillColor=strokeColor;" parent="CSdOMJZsFnO5DeOv6PW6-1" vertex="1">
                    <mxGeometry x="505" y="240" width="5" height="160" as="geometry"/>
                </mxCell>
                <mxCell id="CSdOMJZsFnO5DeOv6PW6-12" value="9. solicitar Reserva" style="endArrow=open;startArrow=none;endFill=0;startFill=0;endSize=8;html=1;verticalAlign=bottom;labelBackgroundColor=none;rounded=0;" parent="CSdOMJZsFnO5DeOv6PW6-1" edge="1">
                    <mxGeometry width="160" relative="1" as="geometry">
                        <mxPoint x="250.16666666666674" y="350" as="sourcePoint"/>
                        <mxPoint x="380.5" y="350" as="targetPoint"/>
                        <Array as="points">
                            <mxPoint x="370.5" y="350"/>
                        </Array>
                    </mxGeometry>
                </mxCell>
                <mxCell id="CSdOMJZsFnO5DeOv6PW6-13" value="2. Verificar datos" style="endArrow=open;startArrow=none;endFill=0;startFill=0;endSize=8;html=1;verticalAlign=bottom;labelBackgroundColor=none;rounded=0;" parent="CSdOMJZsFnO5DeOv6PW6-1" target="CSdOMJZsFnO5DeOv6PW6-5" edge="1">
                    <mxGeometry width="160" relative="1" as="geometry">
                        <mxPoint x="377" y="150" as="sourcePoint"/>
                        <mxPoint x="505" y="150" as="targetPoint"/>
                        <Array as="points">
                            <mxPoint x="455" y="150"/>
                        </Array>
                    </mxGeometry>
                </mxCell>
                <mxCell id="CSdOMJZsFnO5DeOv6PW6-14" value="3. Datos verificados" style="endArrow=none;startArrow=open;endFill=0;startFill=0;endSize=8;html=1;verticalAlign=bottom;labelBackgroundColor=none;rounded=0;dashed=1;" parent="CSdOMJZsFnO5DeOv6PW6-1" target="CSdOMJZsFnO5DeOv6PW6-5" edge="1">
                    <mxGeometry width="160" relative="1" as="geometry">
                        <mxPoint x="382" y="180" as="sourcePoint"/>
                        <mxPoint x="510" y="180" as="targetPoint"/>
                        <Array as="points">
                            <mxPoint x="488" y="180"/>
                        </Array>
                    </mxGeometry>
                </mxCell>
                <mxCell id="CSdOMJZsFnO5DeOv6PW6-15" value="" style="html=1;points=[];perimeter=orthogonalPerimeter;fillColor=strokeColor;" parent="CSdOMJZsFnO5DeOv6PW6-1" vertex="1">
                    <mxGeometry x="645.5" y="150" width="5" height="240" as="geometry"/>
                </mxCell>
                <mxCell id="CSdOMJZsFnO5DeOv6PW6-16" value="6-info libro" style="endArrow=open;startArrow=none;endFill=0;startFill=0;endSize=8;html=1;verticalAlign=bottom;labelBackgroundColor=none;rounded=0;" parent="CSdOMJZsFnO5DeOv6PW6-1" edge="1">
                    <mxGeometry width="160" relative="1" as="geometry">
                        <mxPoint x="512.25" y="270" as="sourcePoint"/>
                        <mxPoint x="647.5" y="270" as="targetPoint"/>
                        <Array as="points">
                            <mxPoint x="590.25" y="270"/>
                        </Array>
                    </mxGeometry>
                </mxCell>
                <mxCell id="CSdOMJZsFnO5DeOv6PW6-17" value="7. devuelve info libro" style="endArrow=none;startArrow=open;endFill=0;startFill=0;endSize=8;html=1;verticalAlign=bottom;labelBackgroundColor=none;rounded=0;dashed=1;" parent="CSdOMJZsFnO5DeOv6PW6-1" source="CSdOMJZsFnO5DeOv6PW6-4" edge="1">
                    <mxGeometry width="160" relative="1" as="geometry">
                        <mxPoint x="510" y="290" as="sourcePoint"/>
                        <mxPoint x="647.5" y="290" as="targetPoint"/>
                        <Array as="points">
                            <mxPoint x="616" y="290"/>
                        </Array>
                    </mxGeometry>
                </mxCell>
                <mxCell id="CSdOMJZsFnO5DeOv6PW6-18" value="10. actualizar datos" style="endArrow=open;startArrow=none;endFill=0;startFill=0;endSize=8;html=1;verticalAlign=bottom;labelBackgroundColor=none;rounded=0;" parent="CSdOMJZsFnO5DeOv6PW6-1" edge="1">
                    <mxGeometry width="160" relative="1" as="geometry">
                        <mxPoint x="510.25" y="370" as="sourcePoint"/>
                        <mxPoint x="645.5" y="370" as="targetPoint"/>
                        <Array as="points">
                            <mxPoint x="588.25" y="370"/>
                        </Array>
                    </mxGeometry>
                </mxCell>
                <mxCell id="CSdOMJZsFnO5DeOv6PW6-19" value="5. Buscar libro" style="endArrow=open;startArrow=none;endFill=0;startFill=0;endSize=8;html=1;verticalAlign=bottom;labelBackgroundColor=none;rounded=0;" parent="CSdOMJZsFnO5DeOv6PW6-1" edge="1">
                    <mxGeometry width="160" relative="1" as="geometry">
                        <mxPoint x="252.5" y="230" as="sourcePoint"/>
                        <mxPoint x="380.5" y="230.5" as="targetPoint"/>
                        <Array as="points">
                            <mxPoint x="348.5" y="230"/>
                        </Array>
                    </mxGeometry>
                </mxCell>
                <mxCell id="CSdOMJZsFnO5DeOv6PW6-20" value="8, mostrar info libro" style="endArrow=none;startArrow=open;endFill=0;startFill=0;endSize=8;html=1;verticalAlign=bottom;labelBackgroundColor=none;rounded=0;dashed=1;" parent="CSdOMJZsFnO5DeOv6PW6-1" source="CSdOMJZsFnO5DeOv6PW6-4" target="CSdOMJZsFnO5DeOv6PW6-2" edge="1">
                    <mxGeometry width="160" relative="1" as="geometry">
                        <mxPoint x="252.5" y="320" as="sourcePoint"/>
                        <mxPoint x="387.5" y="320" as="targetPoint"/>
                        <Array as="points">
                            <mxPoint x="437.5" y="320"/>
                        </Array>
                    </mxGeometry>
                </mxCell>
                <mxCell id="CSdOMJZsFnO5DeOv6PW6-21" value="9. solicitar Reserva" style="endArrow=open;startArrow=none;endFill=0;startFill=0;endSize=8;html=1;verticalAlign=bottom;labelBackgroundColor=none;rounded=0;" parent="CSdOMJZsFnO5DeOv6PW6-1" edge="1">
                    <mxGeometry width="160" relative="1" as="geometry">
                        <mxPoint x="380.4966666666667" y="360" as="sourcePoint"/>
                        <mxPoint x="510.83" y="360" as="targetPoint"/>
                        <Array as="points">
                            <mxPoint x="500.83" y="360"/>
                        </Array>
                    </mxGeometry>
                </mxCell>
                <mxCell id="CSdOMJZsFnO5DeOv6PW6-22" value="11. datos actualizado" style="endArrow=none;startArrow=open;endFill=0;startFill=0;endSize=8;html=1;verticalAlign=bottom;labelBackgroundColor=none;rounded=0;dashed=1;" parent="CSdOMJZsFnO5DeOv6PW6-1" edge="1">
                    <mxGeometry width="160" relative="1" as="geometry">
                        <mxPoint x="510" y="390" as="sourcePoint"/>
                        <mxPoint x="638" y="390" as="targetPoint"/>
                        <Array as="points">
                            <mxPoint x="616" y="390"/>
                        </Array>
                    </mxGeometry>
                </mxCell>
                <mxCell id="CSdOMJZsFnO5DeOv6PW6-23" value="&lt;p style=&quot;line-height: 120%;&quot;&gt;&lt;font style=&quot;font-size: 9px;&quot;&gt;12.mesaje de confirmacion&lt;/font&gt;&lt;/p&gt;" style="endArrow=none;startArrow=open;endFill=0;startFill=0;endSize=8;html=1;verticalAlign=bottom;labelBackgroundColor=none;rounded=0;dashed=1;" parent="CSdOMJZsFnO5DeOv6PW6-1" edge="1">
                    <mxGeometry width="160" relative="1" as="geometry">
                        <mxPoint x="382" y="400" as="sourcePoint"/>
                        <mxPoint x="510" y="400" as="targetPoint"/>
                        <Array as="points">
                            <mxPoint x="488" y="400"/>
                        </Array>
                    </mxGeometry>
                </mxCell>
                <mxCell id="CSdOMJZsFnO5DeOv6PW6-24" value="Bibliotecario" style="shape=umlLifeline;perimeter=lifelinePerimeter;whiteSpace=wrap;html=1;container=1;dropTarget=0;collapsible=0;recursiveResize=0;outlineConnect=0;portConstraint=eastwest;newEdgeStyle={&quot;edgeStyle&quot;:&quot;elbowEdgeStyle&quot;,&quot;elbow&quot;:&quot;vertical&quot;,&quot;curved&quot;:0,&quot;rounded&quot;:0};" parent="CSdOMJZsFnO5DeOv6PW6-1" vertex="1">
                    <mxGeometry x="70" y="50" width="100" height="720" as="geometry"/>
                </mxCell>
                <mxCell id="CSdOMJZsFnO5DeOv6PW6-25" value="&lt;span style=&quot;color: rgba(0, 0, 0, 0); font-family: monospace; font-size: 0px; text-align: start;&quot;&gt;%3CmxGraphModel%3E%3Croot%3E%3CmxCell%20id%3D%220%22%2F%3E%3CmxCell%20id%3D%221%22%20parent%3D%220%22%2F%3E%3CmxCell%20id%3D%222%22%20value%3D%22Usuario%22%20style%3D%22shape%3DumlLifeline%3Bperimeter%3DlifelinePerimeter%3BwhiteSpace%3Dwrap%3Bhtml%3D1%3Bcontainer%3D1%3BdropTarget%3D0%3Bcollapsible%3D0%3BrecursiveResize%3D0%3BoutlineConnect%3D0%3BportConstraint%3Deastwest%3BnewEdgeStyle%3D%7B%26quot%3BedgeStyle%26quot%3B%3A%26quot%3BelbowEdgeStyle%26quot%3B%2C%26quot%3Belbow%26quot%3B%3A%26quot%3Bvertical%26quot%3B%2C%26quot%3Bcurved%26quot%3B%3A0%2C%26quot%3Brounded%26quot%3B%3A0%7D%3B%22%20vertex%3D%221%22%20parent%3D%221%22%3E%3CmxGeometry%20x%3D%2270%22%20y%3D%2260%22%20width%3D%22100%22%20height%3D%22420%22%20as%3D%22geometry%22%2F%3E%3C%2FmxCell%3E%3C%2Froot%3E%3C%2FmxGraphModel%3E&lt;/span&gt;" style="html=1;points=[];perimeter=orthogonalPerimeter;fillColor=strokeColor;" parent="CSdOMJZsFnO5DeOv6PW6-1" vertex="1">
                    <mxGeometry x="117.5" y="435" width="5" height="170" as="geometry"/>
                </mxCell>
                <mxCell id="CSdOMJZsFnO5DeOv6PW6-27" value="12. autentifiacion" style="endArrow=open;startArrow=none;endFill=0;startFill=0;endSize=8;html=1;verticalAlign=bottom;labelBackgroundColor=none;rounded=0;entryX=0.633;entryY=-0.004;entryDx=0;entryDy=0;entryPerimeter=0;" parent="CSdOMJZsFnO5DeOv6PW6-1" target="CSdOMJZsFnO5DeOv6PW6-28" edge="1">
                    <mxGeometry width="160" relative="1" as="geometry">
                        <mxPoint x="120.5" y="435" as="sourcePoint"/>
                        <mxPoint x="247.5" y="435" as="targetPoint"/>
                        <Array as="points">
                            <mxPoint x="198" y="435"/>
                        </Array>
                    </mxGeometry>
                </mxCell>
                <mxCell id="CSdOMJZsFnO5DeOv6PW6-28" value="" style="html=1;points=[];perimeter=orthogonalPerimeter;fillColor=strokeColor;" parent="CSdOMJZsFnO5DeOv6PW6-1" vertex="1">
                    <mxGeometry x="375.5" y="435" width="5" height="135" as="geometry"/>
                </mxCell>
                <mxCell id="CSdOMJZsFnO5DeOv6PW6-29" value="" style="html=1;points=[];perimeter=orthogonalPerimeter;fillColor=strokeColor;" parent="CSdOMJZsFnO5DeOv6PW6-1" vertex="1">
                    <mxGeometry x="505" y="560" width="5" height="90" as="geometry"/>
                </mxCell>
                <mxCell id="CSdOMJZsFnO5DeOv6PW6-30" value="" style="html=1;points=[];perimeter=orthogonalPerimeter;fillColor=strokeColor;" parent="CSdOMJZsFnO5DeOv6PW6-1" vertex="1">
                    <mxGeometry x="645.5" y="450" width="5" height="170" as="geometry"/>
                </mxCell>
                <mxCell id="CSdOMJZsFnO5DeOv6PW6-31" value="13. autentifiacion" style="endArrow=open;startArrow=none;endFill=0;startFill=0;endSize=8;html=1;verticalAlign=bottom;labelBackgroundColor=none;rounded=0;entryX=0.467;entryY=0.002;entryDx=0;entryDy=0;entryPerimeter=0;" parent="CSdOMJZsFnO5DeOv6PW6-1" target="CSdOMJZsFnO5DeOv6PW6-30" edge="1">
                    <mxGeometry width="160" relative="1" as="geometry">
                        <mxPoint x="380.5" y="451" as="sourcePoint"/>
                        <mxPoint x="639" y="450" as="targetPoint"/>
                        <Array as="points">
                            <mxPoint x="458" y="451"/>
                        </Array>
                    </mxGeometry>
                </mxCell>
                <mxCell id="CSdOMJZsFnO5DeOv6PW6-32" value="14. Datos verificados" style="endArrow=none;startArrow=open;endFill=0;startFill=0;endSize=8;html=1;verticalAlign=bottom;labelBackgroundColor=none;rounded=0;dashed=1;" parent="CSdOMJZsFnO5DeOv6PW6-1" edge="1">
                    <mxGeometry width="160" relative="1" as="geometry">
                        <mxPoint x="380.5" y="490" as="sourcePoint"/>
                        <mxPoint x="646.5" y="490" as="targetPoint"/>
                        <Array as="points">
                            <mxPoint x="486.5" y="490"/>
                        </Array>
                    </mxGeometry>
                </mxCell>
                <mxCell id="CSdOMJZsFnO5DeOv6PW6-33" value="15. autorizacion" style="endArrow=none;startArrow=open;endFill=0;startFill=0;endSize=8;html=1;verticalAlign=bottom;labelBackgroundColor=none;rounded=0;dashed=1;" parent="CSdOMJZsFnO5DeOv6PW6-1" source="CSdOMJZsFnO5DeOv6PW6-24" target="CSdOMJZsFnO5DeOv6PW6-4" edge="1">
                    <mxGeometry width="160" relative="1" as="geometry">
                        <mxPoint x="150" y="510" as="sourcePoint"/>
                        <mxPoint x="277" y="510" as="targetPoint"/>
                        <Array as="points">
                            <mxPoint x="256" y="510"/>
                            <mxPoint x="290" y="510"/>
                        </Array>
                    </mxGeometry>
                </mxCell>
                <mxCell id="CSdOMJZsFnO5DeOv6PW6-35" value="16. Reservar libro" style="endArrow=open;startArrow=none;endFill=0;startFill=0;endSize=8;html=1;verticalAlign=bottom;labelBackgroundColor=none;rounded=0;entryX=0.633;entryY=-0.004;entryDx=0;entryDy=0;entryPerimeter=0;" parent="CSdOMJZsFnO5DeOv6PW6-1" edge="1">
                    <mxGeometry width="160" relative="1" as="geometry">
                        <mxPoint x="117" y="541" as="sourcePoint"/>
                        <mxPoint x="375.5" y="540" as="targetPoint"/>
                        <Array as="points">
                            <mxPoint x="194.5" y="541"/>
                        </Array>
                    </mxGeometry>
                </mxCell>
                <mxCell id="CSdOMJZsFnO5DeOv6PW6-36" value="17. solicitud de reserva" style="endArrow=open;startArrow=none;endFill=0;startFill=0;endSize=8;html=1;verticalAlign=bottom;labelBackgroundColor=none;rounded=0;" parent="CSdOMJZsFnO5DeOv6PW6-1" edge="1">
                    <mxGeometry width="160" relative="1" as="geometry">
                        <mxPoint x="383" y="561" as="sourcePoint"/>
                        <mxPoint x="510" y="560" as="targetPoint"/>
                        <Array as="points">
                            <mxPoint x="460.5" y="561"/>
                        </Array>
                    </mxGeometry>
                </mxCell>
                <mxCell id="CSdOMJZsFnO5DeOv6PW6-37" value="18. actualizar datos" style="endArrow=open;startArrow=none;endFill=0;startFill=0;endSize=8;html=1;verticalAlign=bottom;labelBackgroundColor=none;rounded=0;" parent="CSdOMJZsFnO5DeOv6PW6-1" target="CSdOMJZsFnO5DeOv6PW6-5" edge="1">
                    <mxGeometry width="160" relative="1" as="geometry">
                        <mxPoint x="510" y="581" as="sourcePoint"/>
                        <mxPoint x="637" y="580" as="targetPoint"/>
                        <Array as="points">
                            <mxPoint x="587.5" y="581"/>
                        </Array>
                    </mxGeometry>
                </mxCell>
                <mxCell id="CSdOMJZsFnO5DeOv6PW6-38" value="19. datos actualizado" style="endArrow=none;startArrow=open;endFill=0;startFill=0;endSize=8;html=1;verticalAlign=bottom;labelBackgroundColor=none;rounded=0;dashed=1;" parent="CSdOMJZsFnO5DeOv6PW6-1" target="CSdOMJZsFnO5DeOv6PW6-5" edge="1">
                    <mxGeometry width="160" relative="1" as="geometry">
                        <mxPoint x="510" y="627.08" as="sourcePoint"/>
                        <mxPoint x="638" y="627.08" as="targetPoint"/>
                        <Array as="points">
                            <mxPoint x="616" y="627.08"/>
                        </Array>
                    </mxGeometry>
                </mxCell>
                <mxCell id="CSdOMJZsFnO5DeOv6PW6-39" value="&lt;font style=&quot;font-size: 9px;&quot;&gt;20. mensaje de confirmacion&lt;/font&gt;" style="endArrow=none;startArrow=open;endFill=0;startFill=0;endSize=8;html=1;verticalAlign=bottom;labelBackgroundColor=none;rounded=0;dashed=1;" parent="CSdOMJZsFnO5DeOv6PW6-1" edge="1">
                    <mxGeometry width="160" relative="1" as="geometry">
                        <mxPoint x="375.5" y="640" as="sourcePoint"/>
                        <mxPoint x="505.5" y="640" as="targetPoint"/>
                        <Array as="points">
                            <mxPoint x="473.5" y="640.08"/>
                        </Array>
                    </mxGeometry>
                </mxCell>
            </root>
        </mxGraphModel>
    </diagram>
    <diagram id="ykRXFxj6hX-8DpdAKUK4" name="PÃ¡gina-7">
        <mxGraphModel dx="2213" dy="787" grid="1" gridSize="10" guides="1" tooltips="1" connect="1" arrows="1" fold="1" page="1" pageScale="1" pageWidth="827" pageHeight="1169" math="0" shadow="0">
            <root>
                <mxCell id="0"/>
                <mxCell id="1" parent="0"/>
                <mxCell id="0j-HQLbFzP1AQ3LcUL6_-1" value="Solicitud de pedir libro" style="shape=umlFrame;whiteSpace=wrap;html=1;pointerEvents=0;recursiveResize=0;container=1;collapsible=0;width=160;" parent="1" vertex="1">
                    <mxGeometry x="-10" y="10" width="680" height="500" as="geometry"/>
                </mxCell>
                <mxCell id="0j-HQLbFzP1AQ3LcUL6_-2" value="libro" style="shape=umlLifeline;perimeter=lifelinePerimeter;whiteSpace=wrap;html=1;container=1;dropTarget=0;collapsible=0;recursiveResize=0;outlineConnect=0;portConstraint=eastwest;newEdgeStyle={&quot;edgeStyle&quot;:&quot;elbowEdgeStyle&quot;,&quot;elbow&quot;:&quot;vertical&quot;,&quot;curved&quot;:0,&quot;rounded&quot;:0};" parent="0j-HQLbFzP1AQ3LcUL6_-1" vertex="1">
                    <mxGeometry x="348.5" y="50" width="100" height="420" as="geometry"/>
                </mxCell>
                <mxCell id="0j-HQLbFzP1AQ3LcUL6_-3" value="Usuario" style="shape=umlLifeline;perimeter=lifelinePerimeter;whiteSpace=wrap;html=1;container=1;dropTarget=0;collapsible=0;recursiveResize=0;outlineConnect=0;portConstraint=eastwest;newEdgeStyle={&quot;edgeStyle&quot;:&quot;elbowEdgeStyle&quot;,&quot;elbow&quot;:&quot;vertical&quot;,&quot;curved&quot;:0,&quot;rounded&quot;:0};" parent="0j-HQLbFzP1AQ3LcUL6_-1" vertex="1">
                    <mxGeometry x="91" y="50" width="100" height="420" as="geometry"/>
                </mxCell>
                <mxCell id="0j-HQLbFzP1AQ3LcUL6_-4" value="vista" style="shape=umlLifeline;perimeter=lifelinePerimeter;whiteSpace=wrap;html=1;container=1;dropTarget=0;collapsible=0;recursiveResize=0;outlineConnect=0;portConstraint=eastwest;newEdgeStyle={&quot;edgeStyle&quot;:&quot;elbowEdgeStyle&quot;,&quot;elbow&quot;:&quot;vertical&quot;,&quot;curved&quot;:0,&quot;rounded&quot;:0};" parent="0j-HQLbFzP1AQ3LcUL6_-1" vertex="1">
                    <mxGeometry x="218.5" y="50" width="100" height="420" as="geometry"/>
                </mxCell>
                <mxCell id="0j-HQLbFzP1AQ3LcUL6_-5" value="modelo" style="shape=umlLifeline;perimeter=lifelinePerimeter;whiteSpace=wrap;html=1;container=1;dropTarget=0;collapsible=0;recursiveResize=0;outlineConnect=0;portConstraint=eastwest;newEdgeStyle={&quot;edgeStyle&quot;:&quot;elbowEdgeStyle&quot;,&quot;elbow&quot;:&quot;vertical&quot;,&quot;curved&quot;:0,&quot;rounded&quot;:0};" parent="0j-HQLbFzP1AQ3LcUL6_-1" vertex="1">
                    <mxGeometry x="489" y="50" width="100" height="420" as="geometry"/>
                </mxCell>
                <mxCell id="0j-HQLbFzP1AQ3LcUL6_-6" value="1. autentifiacion" style="endArrow=open;startArrow=none;endFill=0;startFill=0;endSize=8;html=1;verticalAlign=bottom;labelBackgroundColor=none;rounded=0;" parent="0j-HQLbFzP1AQ3LcUL6_-1" source="0j-HQLbFzP1AQ3LcUL6_-3" target="0j-HQLbFzP1AQ3LcUL6_-4" edge="1">
                    <mxGeometry width="160" relative="1" as="geometry">
                        <mxPoint x="188.5" y="150" as="sourcePoint"/>
                        <mxPoint x="248.5" y="150" as="targetPoint"/>
                        <Array as="points">
                            <mxPoint x="218.5" y="140"/>
                        </Array>
                    </mxGeometry>
                </mxCell>
                <mxCell id="0j-HQLbFzP1AQ3LcUL6_-7" value="4. autorizacion" style="endArrow=none;startArrow=open;endFill=0;startFill=0;endSize=8;html=1;verticalAlign=bottom;labelBackgroundColor=none;rounded=0;dashed=1;" parent="0j-HQLbFzP1AQ3LcUL6_-1" source="0j-HQLbFzP1AQ3LcUL6_-3" target="0j-HQLbFzP1AQ3LcUL6_-4" edge="1">
                    <mxGeometry width="160" relative="1" as="geometry">
                        <mxPoint x="168.5" y="200" as="sourcePoint"/>
                        <mxPoint x="296.5" y="200" as="targetPoint"/>
                        <Array as="points">
                            <mxPoint x="246.5" y="200"/>
                        </Array>
                    </mxGeometry>
                </mxCell>
                <mxCell id="0j-HQLbFzP1AQ3LcUL6_-8" value="5. Buscar libro" style="endArrow=open;startArrow=none;endFill=0;startFill=0;endSize=8;html=1;verticalAlign=bottom;labelBackgroundColor=none;rounded=0;" parent="0j-HQLbFzP1AQ3LcUL6_-1" edge="1">
                    <mxGeometry width="160" relative="1" as="geometry">
                        <mxPoint x="271.5" y="249.5" as="sourcePoint"/>
                        <mxPoint x="399.5" y="250" as="targetPoint"/>
                        <Array as="points">
                            <mxPoint x="367.5" y="249.5"/>
                        </Array>
                    </mxGeometry>
                </mxCell>
                <mxCell id="0j-HQLbFzP1AQ3LcUL6_-9" value="" style="html=1;points=[];perimeter=orthogonalPerimeter;fillColor=strokeColor;" parent="0j-HQLbFzP1AQ3LcUL6_-1" vertex="1">
                    <mxGeometry x="138.5" y="130" width="5" height="220" as="geometry"/>
                </mxCell>
                <mxCell id="0j-HQLbFzP1AQ3LcUL6_-10" value="" style="html=1;points=[];perimeter=orthogonalPerimeter;fillColor=strokeColor;" parent="0j-HQLbFzP1AQ3LcUL6_-1" vertex="1">
                    <mxGeometry x="266.5" y="130" width="5" height="280" as="geometry"/>
                </mxCell>
                <mxCell id="0j-HQLbFzP1AQ3LcUL6_-11" value="" style="html=1;points=[];perimeter=orthogonalPerimeter;fillColor=strokeColor;" parent="0j-HQLbFzP1AQ3LcUL6_-1" vertex="1">
                    <mxGeometry x="396" y="240" width="5" height="160" as="geometry"/>
                </mxCell>
                <mxCell id="0j-HQLbFzP1AQ3LcUL6_-12" value="9. solicitar libro" style="endArrow=open;startArrow=none;endFill=0;startFill=0;endSize=8;html=1;verticalAlign=bottom;labelBackgroundColor=none;rounded=0;" parent="0j-HQLbFzP1AQ3LcUL6_-1" edge="1">
                    <mxGeometry width="160" relative="1" as="geometry">
                        <mxPoint x="141.16666666666674" y="350" as="sourcePoint"/>
                        <mxPoint x="271.5" y="350" as="targetPoint"/>
                        <Array as="points">
                            <mxPoint x="261.5" y="350"/>
                        </Array>
                    </mxGeometry>
                </mxCell>
                <mxCell id="0j-HQLbFzP1AQ3LcUL6_-13" value="2. Verificar datos" style="endArrow=open;startArrow=none;endFill=0;startFill=0;endSize=8;html=1;verticalAlign=bottom;labelBackgroundColor=none;rounded=0;" parent="0j-HQLbFzP1AQ3LcUL6_-1" target="0j-HQLbFzP1AQ3LcUL6_-5" edge="1">
                    <mxGeometry width="160" relative="1" as="geometry">
                        <mxPoint x="268" y="150" as="sourcePoint"/>
                        <mxPoint x="396" y="150" as="targetPoint"/>
                        <Array as="points">
                            <mxPoint x="346" y="150"/>
                        </Array>
                    </mxGeometry>
                </mxCell>
                <mxCell id="0j-HQLbFzP1AQ3LcUL6_-14" value="3. Datos verificados" style="endArrow=none;startArrow=open;endFill=0;startFill=0;endSize=8;html=1;verticalAlign=bottom;labelBackgroundColor=none;rounded=0;dashed=1;" parent="0j-HQLbFzP1AQ3LcUL6_-1" target="0j-HQLbFzP1AQ3LcUL6_-5" edge="1">
                    <mxGeometry width="160" relative="1" as="geometry">
                        <mxPoint x="273" y="180" as="sourcePoint"/>
                        <mxPoint x="401" y="180" as="targetPoint"/>
                        <Array as="points">
                            <mxPoint x="379" y="180"/>
                        </Array>
                    </mxGeometry>
                </mxCell>
                <mxCell id="0j-HQLbFzP1AQ3LcUL6_-15" value="" style="html=1;points=[];perimeter=orthogonalPerimeter;fillColor=strokeColor;" parent="0j-HQLbFzP1AQ3LcUL6_-1" vertex="1">
                    <mxGeometry x="536.5" y="150" width="5" height="240" as="geometry"/>
                </mxCell>
                <mxCell id="0j-HQLbFzP1AQ3LcUL6_-16" value="6-info libro" style="endArrow=open;startArrow=none;endFill=0;startFill=0;endSize=8;html=1;verticalAlign=bottom;labelBackgroundColor=none;rounded=0;" parent="0j-HQLbFzP1AQ3LcUL6_-1" edge="1">
                    <mxGeometry width="160" relative="1" as="geometry">
                        <mxPoint x="403.25" y="270" as="sourcePoint"/>
                        <mxPoint x="538.5" y="270" as="targetPoint"/>
                        <Array as="points">
                            <mxPoint x="481.25" y="270"/>
                        </Array>
                    </mxGeometry>
                </mxCell>
                <mxCell id="0j-HQLbFzP1AQ3LcUL6_-17" value="7. devuelve info libro" style="endArrow=none;startArrow=open;endFill=0;startFill=0;endSize=8;html=1;verticalAlign=bottom;labelBackgroundColor=none;rounded=0;dashed=1;" parent="0j-HQLbFzP1AQ3LcUL6_-1" source="0j-HQLbFzP1AQ3LcUL6_-4" edge="1">
                    <mxGeometry width="160" relative="1" as="geometry">
                        <mxPoint x="401" y="290" as="sourcePoint"/>
                        <mxPoint x="538.5" y="290" as="targetPoint"/>
                        <Array as="points">
                            <mxPoint x="507" y="290"/>
                        </Array>
                    </mxGeometry>
                </mxCell>
                <mxCell id="0j-HQLbFzP1AQ3LcUL6_-18" value="10. actualizar datos" style="endArrow=open;startArrow=none;endFill=0;startFill=0;endSize=8;html=1;verticalAlign=bottom;labelBackgroundColor=none;rounded=0;" parent="0j-HQLbFzP1AQ3LcUL6_-1" edge="1">
                    <mxGeometry width="160" relative="1" as="geometry">
                        <mxPoint x="401.25" y="370" as="sourcePoint"/>
                        <mxPoint x="536.5" y="370" as="targetPoint"/>
                        <Array as="points">
                            <mxPoint x="479.25" y="370"/>
                        </Array>
                    </mxGeometry>
                </mxCell>
                <mxCell id="0j-HQLbFzP1AQ3LcUL6_-19" value="5. Buscar libro" style="endArrow=open;startArrow=none;endFill=0;startFill=0;endSize=8;html=1;verticalAlign=bottom;labelBackgroundColor=none;rounded=0;" parent="0j-HQLbFzP1AQ3LcUL6_-1" edge="1">
                    <mxGeometry width="160" relative="1" as="geometry">
                        <mxPoint x="143.5" y="230" as="sourcePoint"/>
                        <mxPoint x="271.5" y="230.5" as="targetPoint"/>
                        <Array as="points">
                            <mxPoint x="239.5" y="230"/>
                        </Array>
                    </mxGeometry>
                </mxCell>
                <mxCell id="0j-HQLbFzP1AQ3LcUL6_-20" value="8, mostrar info libro" style="endArrow=none;startArrow=open;endFill=0;startFill=0;endSize=8;html=1;verticalAlign=bottom;labelBackgroundColor=none;rounded=0;dashed=1;" parent="0j-HQLbFzP1AQ3LcUL6_-1" source="0j-HQLbFzP1AQ3LcUL6_-4" target="0j-HQLbFzP1AQ3LcUL6_-2" edge="1">
                    <mxGeometry width="160" relative="1" as="geometry">
                        <mxPoint x="143.5" y="320" as="sourcePoint"/>
                        <mxPoint x="278.5" y="320" as="targetPoint"/>
                        <Array as="points">
                            <mxPoint x="328.5" y="320"/>
                        </Array>
                    </mxGeometry>
                </mxCell>
                <mxCell id="0j-HQLbFzP1AQ3LcUL6_-21" value="9. solicitar libro" style="endArrow=open;startArrow=none;endFill=0;startFill=0;endSize=8;html=1;verticalAlign=bottom;labelBackgroundColor=none;rounded=0;" parent="0j-HQLbFzP1AQ3LcUL6_-1" edge="1">
                    <mxGeometry width="160" relative="1" as="geometry">
                        <mxPoint x="271.4966666666667" y="360" as="sourcePoint"/>
                        <mxPoint x="401.83" y="360" as="targetPoint"/>
                        <Array as="points">
                            <mxPoint x="391.83" y="360"/>
                        </Array>
                    </mxGeometry>
                </mxCell>
                <mxCell id="0j-HQLbFzP1AQ3LcUL6_-22" value="11. datos actualizado" style="endArrow=none;startArrow=open;endFill=0;startFill=0;endSize=8;html=1;verticalAlign=bottom;labelBackgroundColor=none;rounded=0;dashed=1;" parent="0j-HQLbFzP1AQ3LcUL6_-1" edge="1">
                    <mxGeometry width="160" relative="1" as="geometry">
                        <mxPoint x="401" y="390" as="sourcePoint"/>
                        <mxPoint x="529" y="390" as="targetPoint"/>
                        <Array as="points">
                            <mxPoint x="507" y="390"/>
                        </Array>
                    </mxGeometry>
                </mxCell>
                <mxCell id="0j-HQLbFzP1AQ3LcUL6_-23" value="&lt;p style=&quot;line-height: 120%;&quot;&gt;&lt;font style=&quot;font-size: 9px;&quot;&gt;12.mesaje de confirmacion&lt;/font&gt;&lt;/p&gt;" style="endArrow=none;startArrow=open;endFill=0;startFill=0;endSize=8;html=1;verticalAlign=bottom;labelBackgroundColor=none;rounded=0;dashed=1;" parent="0j-HQLbFzP1AQ3LcUL6_-1" edge="1">
                    <mxGeometry width="160" relative="1" as="geometry">
                        <mxPoint x="273" y="400" as="sourcePoint"/>
                        <mxPoint x="401" y="400" as="targetPoint"/>
                        <Array as="points">
                            <mxPoint x="379" y="400"/>
                        </Array>
                    </mxGeometry>
                </mxCell>
            </root>
        </mxGraphModel>
    </diagram>
</mxfile>